<svg id="Layer_1" data-name="Layer 1" xmlns="http://www.w3.org/2000/svg" viewBox="0 0 9594.71 6531.91"><defs><style>.cls-1{fill:#fff;}.cls-2{fill:#003a4e;}.cls-3{fill:#cbcbcb;}.cls-4{fill:#89c8cf;}.cls-5{fill:#fd5e63;}</style></defs><path d="M7529.68,3681.82c23.63,67.83,46.32,132.35,68.6,197,90.42,262.42,146.43,533.34,196.66,805.51,17.66,95.69,29.46,192.52,41.62,289.12,1.91,15.19-9.22,31.79-13,48-2.32,9.87-4.3,20.66-2.8,30.48,27.46,180.08,58.2,360.09,51,543.1-6.56,166.09-17.67,332-27.61,497.95-5.18,86.41-12.33,172.7-18.05,259.08-.49,7.46,5.39,15.63,4.1,22.7-1.73,9.42-5.49,20.29-12.12,26.61-12.64,12.08-30.68,19.08-41.63,32.22-46.77,56.14-111.65,67.3-178.26,78.75-293.68,50.48-576.41-3.69-856.65-85.89-78.27-23-158-41.13-235.75-65.54-51.87-16.28-101.52-39.63-152.05-60.1-5.45-2.21-9.75-8-15.22-9.22-56.86-12.51-52-30.31-41.45-87.94,46-250.92,110-497.53,176.45-743.7,22.49-83.34,34.63-169.61,48.58-255,3.12-19.14-4.57-40.63-9.68-60.42-28.59-110.73-58.57-221.11-86.81-331.93C6395.31,4694,6366.47,4575,6337,4456.11c-1.17-4.73-2.59-9.39-3.47-12.57H6147.61q-690.73,0-1381.49,0c-10,0-20.39,1.59-29.75-.84-7.51-1.94-16.6-7.56-19.54-14-2.09-4.6,3-15.75,8.17-19.7,11.41-8.74,24.12-17.18,37.65-21.52,58.6-18.78,103.08-55.93,137.83-105,55.71-78.64,84.78-166.08,82.5-263.24-.58-24.69-6.62-40.4-34.36-50.13-188.07-66-339.72-185-470.94-332-17.55-19.65-35.41-26.79-61.46-26.73q-711.66,1.83-1423.33,2.09c-87.69.13-175.43,3.78-263.07,2-72-1.43-135.52-26-174.31-91.39-11-18.52-18.22-42.45-18.15-63.86.65-201.31,3.26-402.62,5.22-603.92.05-5.78-.91-11.56-1.62-20H1662.41c-11,54.86-21.21,108.91-33,162.6-5.49,25,5,42.06,27.13,44.18,31.08,3,62.92-.49,94.32-2.73,28.71-2,57.23-8.35,85.91-8.9,70.44-1.36,110.62,33.54,115.23,105,5.58,86.56-20.46,165.19-73.49,234.06-38.9,50.51-78.19,100.78-118.93,149.8-18.22,21.91-16.13,39.41,4.26,56.08,17.7,14.48,36.14,28.15,55.06,41,45.9,31.21,62.31,75.24,59,129-3.81,61.2-30.38,105.66-89.11,129.35-74.67,30.11-151.91,26.38-229.79,21.52-38.07-2.38-76.42-.41-122-.41,14.48,30.88,25.41,56,37.82,80.32,45.16,88.61,34.2,142.76-46,201.55-59.55,43.64-127.83,59-201,48.48-37.46-5.37-65.84-26.42-88.25-56.43-23.83-31.92-47.47-64.06-72.94-94.64-6.48-7.78-19.58-10-29.64-14.85-4.22,9.4-12.39,19-12.05,28.19,3.41,93.54-49.69,147.45-127.7,183.27-77.7,35.68-149.88,15.07-218.32-26.5-34.42-20.91-50.32-56.17-60.49-93.11C600.12,4086,585,4019,566.05,3953.06c-4.75-16.52-19.19-30.26-29.17-45.27-13.56,12.23-29.24,22.84-40.22,37.07-19.33,25-32.09,56-54.12,78-71.09,70.8-174.81,53-218.41-37-44.5-91.84-58.37-184.58-5.69-280.25,21.35-38.78,36-82,48.54-124.68,14.08-48.07-1-88.1-40.12-122.52-35.36-31.07-75.35-51-117.69-68.67-100.43-42-134.66-118-89.75-216.5,22.31-48.91,55.7-93.69,89.15-136.36,44.18-56.38,93.87-108.41,140.12-163.2,24.74-29.32,43.72-61.82,42.45-102.54-.77-24.71-9.91-42.07-35.76-47.9-11.63-2.62-22.95-6.59-34.4-9.95-74.17-21.76-99-105.66-44.13-160.78C236.09,2493,305.6,2454.93,395,2459.71c54.29,2.9,109.56-1.83,163.68-8.72,78.47-10,142-48.74,188.15-113.84,5.23-7.38,9-17.57,9.16-26.51,3.81-258.09,6.82-516.19,10.6-774.27,1-65.27.29-130.92,7.25-195.65,6.46-60,46.87-103,94.88-135.21,15.17-10.17,40.52-5.64,61.26-6.8,8.7-.49,17.55,2.57,26.33,2.58q783.45.72,1566.89,1.15h30.07c1-17.52,2.3-33,2.57-48.6q3.24-192.79,6.19-385.61c3.39-199.27,3.85-398.67,12.15-597.73C2577.12,100.83,2637.54,8,2731.4,5.4,2893.68.85,3056.1-.14,3218.45,0Q4540.12,1.33,5861.77,4,6733.4,5.43,7605,7.11c185.37.38,370.92-2.8,556,4.5,69,2.72,134.2,34.52,171.22,102.92,34.12,63.07,53.56,127.12,51.21,201.6-5.82,184.23-3.67,368.72-4.82,553.1q-4.38,704.1-8.88,1408.2-3.91,608.45-8.5,1216.89c-.36,42.78-18.18,79.14-58,100.91-63.39,34.61-128.63,55.64-203.47,54.9-95.34-.94-190.77,10.16-286.2,15.34-87.49,4.76-175,8.51-262.53,12.85C7545.25,3678.61,7539.51,3680.17,7529.68,3681.82ZM6881,2645.76c7.08,52.69.64,61.78-53,73.7-13.58,3-27.26,6.17-41.06,7.51-85.16,8.23-171,12-255.37,25.16-60.53,9.42-127.66,2.5-177.51,51.4-1.79,1.76-5.73,1.16-8.53,2.07-18.38,6-38.54,9.1-54.77,18.76-80.35,47.82-151.64,107.84-208.75,181.35-83.65,107.68-160.49,220.64-243.46,328.86-84.76,110.55-173.37,218.16-260.47,326.9-9.53,11.9-26.62,21.5-29.35,34.45-13.46,63.74-13.84,125.34,29.92,181.65,53.68,69.09,116.9,109.84,208.83,112.83,109.83,3.58,207.06-36.05,306.05-70.89,64.26-22.62,81.86-21.15,122.44,35.28,9.25,12.86,18.74,26.27,24.4,40.87,24.79,64,53.65,127,71.07,193,46.7,177,87.69,355.44,132.09,533,34.47,137.88,70.67,275.33,106.15,413.19,26.73,7.08,55.53,11.79,82,22.28,69.92,27.67,141.2,35.52,213.7,16.12,198.72-53.2,402-67.81,606.32-73.51,59.39-1.66,117-9,171.16-34.93,52-25,104.35-49.35,155.76-75.51,7.15-3.64,14.73-16.55,13.86-24.24-7.31-64.21-13.57-128.77-25.76-192.15-36.47-189.61-66.64-381.08-116-567.4-51.06-192.92-115.31-383.06-185.43-570.05-75.42-201.13-159.74-399.29-248.93-594.76-64.68-141.76-159.18-261.86-310.36-324.64-6.6-2.74-9.08-15.43-13.48-23.48,8.83-3.94,19.57-13.21,26.15-10.86,24.14,8.64,48.41,18.76,69.91,32.57,125.29,80.51,215.62,192.1,274.48,327.31,82.21,188.83,160.07,379.57,238.29,570.12,9.14,22.26,19.11,30.93,43,28.91,44.62-3.78,89.47-4.78,134.21-7.21Q7890.34,3622,8102,3610.22c63-3.59,124.56-12.68,180.29-46.27,25.8-15.54,37.94-36.25,37.93-65.9,0-57.8.8-115.6,1.2-173.4q3-438,6-876,5-656.25,10.33-1312.52,2.91-400.63,4.11-801.3c.1-41.19,2-84.69-9.81-123.14-33.76-109.55-78.21-163.54-219.24-163.8q-608.49-1.15-1217-1.39-1006.17-1.92-2012.35-4.42-1043.56-1.5-2087.13-2c-16.46,0-35.69-15.11-48.89-10.27-53.83,19.74-106.45,45.2-123.94,106.6-8.31,29.19-11.69,60.5-12.49,91-2.51,95.63-2.5,191.33-3.88,287q-4.86,336.29-10,672.56c-.07,4.61,1.7,9.24,2.92,15.48,50,0,98.69,0,147.43,0,74.27,0,157.45,69.13,165.39,144,3,28.59,15.34,37.53,37.89,47.16,80.69,34.43,120.52,96.18,120.37,184.62q-1,630.93-.85,1261.85c0,33.45-13.53,57.48-43.65,67-33.68,10.67-69.14,20-104.15,21.33-87.59,3.37-175.37,1.94-263.07,2.37-25.5.12-51,0-73.94,0-3.14,8.7-4.39,10.54-4.4,12.39-.8,178.4-1.69,356.8-1.75,535.2,0,10,5.17,21.09,10.84,29.76,35.92,54.9,91.63,66.33,151.57,66.18q822.27-2.05,1644.54-4.62c7.07,0,14.14-1.57,24.94-2.85-45.44-47.26-85.18-93.71-130.36-134.05-39.59-35.34-83.87-66.05-128.69-94.71-47.6-30.45-97.37-57.92-148-83-25.7-12.74-24.54-26.47-14.21-47.34,27.34-55.28,52.75-111.55,81.66-166,10.29-19.36,28.45-34.53,48.2-57.68-32.31-94.2-68.08-198.46-102.92-300-41,0-79.58,0-118.14,0-25.91,0-52,1.28-77.66-1.11-7.91-.73-14.86-11.7-22.25-18,7.69-5.81,14.63-13.67,23.28-16.82,7.94-2.88,17.72-.71,26.69-.71h137.86c-12.2-10.31-17.23-16.44-23.71-19.75-57-29.14-77-78.67-74.09-138.7,2.1-43.32,1.05-85-16.46-125.9-4.09-9.56,1.71-32.14,9.49-36.2,18.41-9.6,23.21,9.28,30.06,22.81,18.72,37,33,78.26,59.65,108.57,31.15,35.49,51.27,72.34,57.87,118.08,2.41,16.71,4.53,33.84,9.94,49.69q62.16,182.2,126.09,363.8c3.18,9,11.51,20.52,19.73,22.88,88.17,25.31,143.15,91.73,195.36,159.62,20.53,26.71,34.25,60.47,44,93.13,8.47,28.46,21.38,46.28,49,57.74,220.19,91.44,422.18,214,611.45,358.48,12.18,9.3,33.18,12.27,49.19,10.43,68.07-7.81,135.58-20.78,203.73-27.54,60.21-6,121-6.19,177.92-8.78,9.25-11.2,16-22.18,25.34-30.06,14.59-12.31,34.85-19.55,46-34.09,116.66-152.66,233.85-305,347.08-460.19,89.13-122.17,181.24-240.24,310.64-323.18,20.6-13.2,52.34-23.18,58.26-41.38,6.77-20.8-9.35-49.16-15.89-74.15-13.26-50.66-26.76-101.26-40-151.35-8.14,0-12.11-.32-16,.05-86.87,8.25-171.74-1-250.71-38.79-77.95-37.31-139.11-95.51-114.49-204,10-44.17-7.32-70.39-52.18-91.88-46.62-22.33-66.69-67.65-40.56-111.75,40.79-68.85,33.73-136.63,9.34-206.71-4.54-13-6.09-33.06-15.08-37.45-28.09-13.71-21.8-38.94-21.21-58.38,1.32-43.59,7.63-87.16,13.93-130.44,18.75-128.67,77.24-234,189.73-303,78.27-48,167.53-69.37,257.54-64.83,182.44,9.21,331.64,93.12,450.1,229.65,79.6,91.74,120,203.74,143.54,321.12,15.05,75,22.3,151.53,34.71,227.11,27.55,167.83,56.24,335.48,84.27,503.24C6929.22,2629.31,6927.65,2631.67,6881,2645.76ZM1829.07,1243.82v-1.22H932.35c-61,0-100.54,29.2-117.67,89.31-5.95,20.89-10.91,42.89-11.14,64.44-.89,82.36,1,164.75.61,247.12q-.89,194.27-3.41,388.54c-2.57,219.16-6.22,438.3-7.3,657.46-.1,20.81,11,44.32,23.51,62,23.24,32.94,60.37,39.4,98.48,39.44q660.57.72,1321.13,1.46c169.38.26,338.78-.06,508.13,2.62,67.78,1.07,115.27-40.11,115.31-107.89q.08-122.54,1.11-245.07,5.1-536.48,10.59-1072.94c.72-70.75-53.35-125.23-124.95-125.23Zm-1075,1148.5c-71.81,64.63-150,102.27-242.79,104.62-46.8,1.19-93.6,2-140.41,2.84-70,1.2-123.06,37.84-168.15,85.69-29,30.81-13.12,73.77,27.85,87.45,7.54,2.51,15.42,4,23,6.27,67.27,20.08,91.73,60.26,74.54,129-5.9,23.58-15.91,48.33-30.93,67-53,65.92-110.79,128-163.14,194.41-30.46,38.64-57.15,81.1-79.73,124.84-20.69,40.1-21.55,83.82,13.09,119a161.54,161.54,0,0,0,53.43,36c54.21,21.74,104.19,48.73,145.94,90.59,37.42,37.53,55.42,82.19,42.67,133-12.24,48.8-26.86,98.72-50.79,142.49-43.25,79.09-39.73,155.22-6.22,234.9,17.13,40.75,41.61,71.81,88.23,73.57,45.1,1.7,75.72-23.71,98.3-61.46,15.75-26.33,31.06-54.08,52.13-75.8,33.07-34.09,76.32-25.66,99.35,15.9a169.71,169.71,0,0,1,15.47,38.66c16.43,62.49,30.36,125.7,48.7,187.6,7.69,25.95,18.25,56.46,37.73,72.44,50,41,109.37,65.09,174.51,38.29,65-26.71,121.65-63.2,115.7-147.62-.81-11.5,2.49-23.87,6.3-35,12.25-35.9,49.19-50.66,82-31.51,13.31,7.78,24.86,19.9,34.71,32.07,23.8,29.41,43.72,62.34,69.91,89.29,17,17.45,40.75,33.64,64,38.58,69.12,14.69,129.72-10.55,181.69-55,45.65-39,49.72-67.19,24.29-121.36-13.53-28.81-28.68-57-40.27-86.55-14.24-36.31-2.73-59.31,35.69-65.57,31-5.05,63.4-5.06,94.86-2.8,78.58,5.65,156.8,13.94,233.2-15.26,39.22-15,62.33-41.48,67.3-83.17,5.18-43.29-3.22-81-42.45-107.33-21.45-14.37-43-29.26-61.72-46.92-34.6-32.69-36.21-65.61-7.17-103.06,37.84-48.8,75.11-98.1,114.83-145.34,45.55-54.18,67.74-117.89,73.58-186,5.44-63.34-24.48-110.32-102.46-96.39-47.78,8.53-96.74,13.8-145.23,14.26-58.78.56-89.84-45.62-74.16-101.66,8-28.74,16-57.61,21.74-86.86,9.39-47.61-4.77-63.68-54.27-64.75-4-.09-8,0-12,0q-324.36-1.41-648.73-2.84c-82-.37-145.48-67.64-144.45-150.27C755,2585.05,754.05,2491.54,754.05,2392.32Zm5812,2792.58c-18.87,101-31.3,197.1-55.32,290.23-60.35,234-123.83,467.18-168,705.06-10.23,55.14-4.49,74.44,48.22,97.69,43.4,19.15,88.77,34.56,134.36,47.89,72.54,21.21,146.81,36.67,218.89,59.22,194.8,60.94,393.59,97.86,597.49,108,108.46,5.37,214.4-12.53,319.68-34.16,57.77-11.87,122.34-68.9,127.91-145.57,6.56-90.3,13.08-180.61,18.68-271,7.69-124.14,15.91-248.27,21.34-372.51,6.69-153.47-.26-306.45-23.66-458.52-9-58.5-16.47-117.24-25.34-180.91-31.64,15.69-57.31,30.75-84.67,41.51-55.18,21.68-109.84,49-167.35,59.35-72.92,13.17-148.4,14-222.89,16.28-133.86,4-265.72,20.47-395.35,54.26-103.46,27-206,33.05-307-11.36C6592.11,5185.54,6578.56,5186.59,6566.07,5184.9ZM6095.28,3966.82c-9.22,1.71-14.07,2.14-18.63,3.51-56.14,16.91-111.33,38.43-168.55,50-95.15,19.17-190.11,19.81-278-32.19a25.17,25.17,0,0,0-13.64-3.35c-94.19,6.43-188.28,15.67-282.57,19.05-78.46,2.82-157.18-.6-235.76-2.51-25.13-.61-50.17-5.2-76.12-8.07,7.26,170.55-51.16,307.82-187.82,410.38H6266.91C6147.07,4281.14,6079,4142.31,6095.28,3966.82Zm-2071.19-739c55.07,28.23,110.93,54.21,164,85,41,23.71,83.39,48.45,116.51,81.43,82.5,82.16,158.6,170.71,240.17,253.85a1605.94,1605.94,0,0,0,150.93,135.49c161,127.15,342.8,195.33,550.61,185.77,71.59-3.3,143.31-3.57,214.91-6.76,41.69-1.85,83.24-6.75,133.74-11-81.05-73-109.7-155.47-82.6-254.52-11-1.19-15.8-2.11-20.61-2.18-119-1.57-236.35,11-352.59,36.82-17.38,3.86-38.39-.72-55.72-7-15.3-5.5-27.46-19.32-41.61-28.52-107.58-70-212.63-144.38-323.79-208.11-95.57-54.79-198.37-96.91-297.37-145.85-10.54-5.21-23.1-18-24.31-28.41-5.38-46.65-17.81-89.68-49.93-125-23.4-25.77-48.46-50-71.53-76.08-38.68-43.64-89.55-61.31-144.8-69.15-7.25-1-20,5-23.1,11.31C4079.11,3110.74,4052.77,3167.43,4024.09,3227.82Zm1822.77-1237-7.45,1.63c5.19,42.81-8.79,80.41-30.11,116.32-17,28.62-9.92,51.42,21.32,64.32,30.94,12.78,57.54,31.15,66,63.87,6.26,24.26,8.16,51.58,4,76.2-9.15,54.53,7.31,96.69,52.23,126.73,114.57,76.6,239.6,74.43,367.42,45.43,5.39-1.22,13.47-11.54,12.57-16.11a679.15,679.15,0,0,0-18.55-72.15c-11-35.32-24.43-69.94-34.33-105.55-2-7.17,5.76-18.43,11.42-26,7.28-9.76,19.45-16.37,25.11-26.73,10.91-20,18.43-41.76,27.91-62.55,21.27-46.67,38.25-93.85,27-146.7-3.92-18.35-12.55-29.22-32-27.8-21.73,1.59-43.47,3.61-65.06,6.55-34.5,4.69-51.35-8-53.19-42.5-1-17.88,1.41-36-.6-53.74-5.61-49.64-12-98.44-57.42-132-106.14-78.59-209.31-69.38-328.52,9.09-26.91,17.71-34.51,38-23,70.42C5826.77,1902,5835.42,1946.9,5846.86,1990.79ZM2581.47,2892.4c49.64,0,96.25.46,142.84-.1,76.67-.93,153.35-2.05,230-4,59.14-1.49,74.65-17.93,74.72-75.66q.49-372,1.08-744.06c.31-166.34,1.29-332.67,1.19-499-.05-76.69-49.1-136.22-120.84-148.44-.31,5.95-.86,11.8-.9,17.65q-3.09,427.26-6.25,854.53c-1.17,134.43-2.79,268.88-6.19,403.28-1.76,69.66-36.41,113.37-98.76,126.9-31.18,6.77-63.56,9.38-95.53,10.8-40.24,1.79-80.62.43-121.36.43Zm3562,1046.27c-56.27,107.2,59.27,400.62,173.15,442.79-6.2-27.67-10.48-55.23-18.64-81.6-29.62-95.68-59.1-191.46-91.8-286.12C6195.51,3982.74,6176.79,3953.62,6143.51,3938.67Zm198.68-1190.41c135.49-38,270.15-48.49,405.64-54.12,32.75-1.37,65.14-11.37,97.19-17.3-1.78-27.48-12.16-35.92-33.45-33.31-58.24,7.12-116.5,14.43-174.93,19.77-69.34,6.34-138.86,10.7-208.3,15.93-21.53,1.62-37.51-7.23-44.6-27.49-11.06-31.57-20.83-63.62-30.37-95.7-3.29-11.06-4.25-22.81-6.34-34.6l-62.36,14.61Zm-2351.6-151.32c-1.59-59.64-22.07-97.61-61.75-116.75C3921,2537.32,3939.81,2573.9,3990.59,2596.94Z"/><path d="M2578.28,5117.45c4-62.23-6-118.24-28.41-172.14-9.13-21.94-2.94-34,21.41-35.46,25.64-1.5,51.43-.33,80.76-.33-6.89-57.48-13.77-110.39-19.48-163.43-9.84-91.36-25.75-181.28-58.76-267.56-9.27-24.24-20.41-39.11-50.88-44.66-82.91-15.11-153.69-53.52-199.66-128.61-35.7-58.3-23.34-101.66,38.53-130.37,59.77-27.74,119.54-33.51,175.37,7.8,18.61,13.77,38.2,32.14,46.52,52.78,23.2,57.5,37.18,117.51,18.85,180.31-2.47,8.49-2.41,19.6.95,27.62,39.73,94.76,56.43,194.52,66.58,295.91,4.85,48.45,12.18,96.67,16.35,145.17,1.73,20.11,10.4,24.91,28.52,23.87,21.62-1.23,43.36-.29,68.36-.29,0-40.62,2.11-78.32-.39-115.72-8-119.34,12.56-236.37,26.79-353.89,2.76-22.79,1.73-40-16.78-58.29-51.66-51.13-83.14-113.52-91.14-186.84-9.47-86.69,70.67-183.43,155.44-188.47,38.27-2.27,67.76,12.66,91.63,40.74,85.16,100.16,59.36,301.9-72.63,357.06-11.19,4.68-23.57,19.89-25.35,31.73-21.94,145.84-38.26,292.22-31.14,440.18.47,9.76.06,19.56.06,33.3,29.16,0,55.89,1.76,82.09-1.18,7-.78,15-15.2,17.94-24.76,32.85-105.39,62.29-211.93,98.14-316.27,16.33-47.5,45.68-90.42,67.35-136.26,6.22-13.16,10.42-29.9,8.32-43.92-7.75-51.84-12-102.8,8-153.07,26.39-66.3,84.74-105.66,153.16-101.48,10.5.65,22.06,3.46,30.9,8.9,66.83,41.15,90.62,142.62,47.92,208.36-28,43.07-60,83-115.58,91.74-12.66,2-26.08,3.14-38.6,1.19-48.36-7.52-48.46-8.15-71.94,32.87-74.46,130.14-115.66,272.35-150.88,416.71-.9,3.69-.11,7.8-.11,13.75,26.11,0,51.79-1.42,77.19.65,11.51.94,25.91,6.22,32.27,14.62,3.51,4.62-6.19,20.2-11.24,30.18-26.24,51.88-59.33,101.95-40.32,167.8H3490c.74-12.54,1.77-26.72,2.36-40.91.89-21.59-.52-43.57,3.4-64.57,1.19-6.38,16.36-12.89,25.84-14.19,8.62-1.19,18.21,4.59,31.4,1.92-11.49-12.41-22.33-25.51-34.61-37.07-21.77-20.47-45.33-39.1-66.37-60.27-13.46-13.54-42.58-25.71-24.66-49.52,16.48-21.9,35.66,1.85,52.38,9.56,24,11.07,47.27,23.82,75.56,31.23-11.3-26.87-23.23-53.49-33.7-80.67-9.65-25.06-19.52-50.31-25.61-76.33-2.43-10.4,5-23.11,8-34.77,11.6,3.23,25.84,3.28,34.31,10.29,26.72,22.11,51.29,46.83,77.08,70.9,13.2-42,26.17-86.49,41.43-130.23,7.23-20.72,12.25-50,41.66-46.92,27.73,2.88,25.69,32,30,52.43,7.14,33.68,12.21,67.79,18.29,102.54,38.7-19.5,74.95-37.86,111.3-56,8-4,16.3-9.83,24.62-10.11,11.91-.39,30.29-.29,34.42,6.55,5.72,9.44,5.53,28.53-.65,37.84-13.58,20.46-32,37.88-49.38,55.61-15.19,15.47-31.69,29.66-50.78,47.35,47.31,12.67,90.54,23.34,133.1,36.26,10.81,3.29,19.46,13.72,29.11,20.87-7.67,9.44-13.66,21.4-23.32,27.87-31.74,21.25-64.81,40.5-99.44,66.82,45.69-1.78,47.48,19.61,41.15,51.88-4.65,23.72-.91,49.08-.91,75.54h403.94c2.42-29.54,5-58,7-86.51,2.75-40,10.51-47.45,51.14-47.7,7.85,0,15.69,0,24.05,0,5.92-20,.27-26.56-18-35.54-22.89-11.24-44.07-30.73-59.31-51.56-18.27-25,.68-61.4,36.77-74.7,16.22-6,34.54-6.3,46.46-8.28,17.75-64.74,33.54-128.15,53-190.41,7-22.22,20.81-43.18,35.05-62.05,48.74-64.55,152.67-51.86,183.33,23.08,13,31.86,19.21,66.53,28.88,101.27,27.82-13.07,57-24.52,84.06,2.56,19.75,19.78,30,71.48,17.55,95.76-18.34,35.75-52.79,38.27-91.14,38.51v162.31c58,11.15,58.14,11.15,59.85,74.5.53,19.55.08,39.13.08,60.74,11.1.5,20.85,1.28,30.6,1.33q491.85,2.3,983.71,4.48c7,0,15.2-1.82,20.56,1.22,6.7,3.79,15.08,11.65,15.24,17.95.17,6.15-7.92,15.18-14.53,18.14-7.6,3.41-17.56,1.94-26.49,1.93q-424.6-.66-849.21-1.45c-52.52-.09-105,0-161,0V5270c0,74.75-.39,149.51.22,224.26.2,23.89-5.92,36.58-28.74,53.21-64,46.6-134.58,58.1-207.11,47.94-62.14-8.7-123-30.21-182.61-51.38-26.27-9.33-40.09-33.7-39.38-66.89,2.19-102.44.8-205,.8-311.63H3897.71c-.59,3.49-2.57,9.95-2.69,16.44-1.72,90.68-3.73,181.35-4.57,272-.76,82.18-22.95,118.76-101.89,145-95.37,31.66-186.38,19.25-269.6-40-30.7-21.85-40.05-50.7-39-87.69,2.71-99.6,2.59-199.27,3.44-298.91,0-2.71-1.68-5.42-3.26-10.19h-454c14.26,24.33,25.88,47.2,40.26,68.17,60.18,87.75,100.47,185.48,113.75,289.15,19.1,149.23-33,313.6-217.19,358.52-64,15.61-126,15.52-188.89.39-86.43-20.79-172.23-43.71-241.43-104.28-54.07-47.32-98.46-103-97.71-177.63.48-47.59,11.43-97,27.45-142.1,25.58-72,59.93-140.91,89.19-211.7,10.51-25.43,17-52.52,27.67-86.05-64.63,0-123.1.16-181.57,0-104.65-.35-209.3-1-314-1.35-67.63-.2-90.74,24-90.11,91.67q3.72,403.62,6.46,807.25c.12,17.9,10.1,47.35-19.11,48.09s-21.15-28.95-21.28-46.91q-2.39-330.39-3.25-660.79c-.22-54.71-.91-109.45.89-164.1.6-18.44,7.48-36.86,12.81-54.9,8.71-29.46,51.64-59.55,85.06-59.12,161.44,2,322.93.94,484.4.95Zm18.14-168c-.3,5.37-.87,7.42-.44,9.24,1.59,6.77,3.62,13.44,5.27,20.19,22.79,92.91,24,185.1-11.06,275.54-16.18,41.68-34.53,82.51-51.17,124-19.58,48.82-40.57,97.25-57,147.15-20.86,63.43-8,123.19,36,172.81,25.36,28.62,53.61,59.28,87.14,75.06,59.7,28.11,123.63,48.18,187.19,66.87,68.23,20.07,136.24,10.5,201.62-16,64.45-26.09,106.44-71.83,130.1-138.57,40.43-114,11.19-220.06-33.35-323.32-24.26-56.26-58.71-108.28-90.14-161.27-41-69.16-46.15-139.14-10.74-212,6.29-12.93,9.36-27.44,13.45-39.8ZM4337.9,5030c0,45.55-.1,89.23,0,132.9.28,101.64.21,203.29,1.48,304.91.23,17.83-.93,38.91,23.26,46.53,38.81,12.23,76.62,29,116.23,37,79.83,16,159.19,18.24,225.64-41.12,8.1-7.24,14.32-21.11,14.47-32,1.39-103.62,1.33-207.26,1.59-310.9.12-45.34,0-90.67,0-137.28Zm-485.44,11.72c-101.94,0-206.24-.39-310.5,1.09-5.49.07-15.23,15.85-15.44,24.5q-5,210.24-7,420.53c-.1,11.92,7,27.31,15.9,35.34,65.11,58.57,186.23,69,263.55,27.91,35.22-18.7,52.5-46.81,52.89-83.09C3853.36,5326.91,3852.46,5185.84,3852.46,5041.68ZM4655,4953.94l-28.45-25.73,29.82-22.85V4801.47l-35.41-17.7,33.84-30.17c-8.07-40.14-17.25-89.74-28.21-139-7.71-34.64-35.95-45.54-66.64-50.72-27.93-4.73-44.59,12.63-58,33.71a443.72,443.72,0,0,0-21.78,38.93c-36.88,73.76-43.25,154.34-51.49,234.4-3.91,37.92-6.47,76-9.89,116.92h233.91C4653.64,4973.65,4654.48,4961,4655,4953.94ZM3552,4941.4c16.5,18.71,29.66,34.54,43.92,49.32,5.12,5.3,12.85,11.34,19.46,11.42,64.7.85,129.43.52,175.76.52l107.52-97.3c-28.53-6.76-58.29-12.87-87.49-21-46.88-13-53.5-35.9-21-72.5,13.46-15.15,29-28.5,43.52-42.66-26.38,7.89-49,21.23-71.61,34.61-25.8,15.27-41,10.56-50.63-17.2-4.2-12.11-5.8-25.16-8.17-37.87-3.86-20.64-7.38-41.35-11-62l-8.63-.43c-9.45,45.47-18.34,91.06-28.77,136.3-2.46,10.7-7.92,25.38-16,28.77-7.69,3.23-22.21-3.65-30.81-10-16.52-12.24-31-27.26-51.22-45.6,17.65,37.87,33.45,69.84,47.51,102.55,10.95,25.45.85,40.89-26.26,43C3571.13,4941.85,3564.15,4941.4,3552,4941.4Zm-690-576.46c14.51-9.86,25.82-15.9,35.16-24.16,63.45-56.05,79.76-172.4,35.21-247.47-33-55.6-77.26-64.26-129.74-25.39-87.43,64.77-79.35,211.63,18.55,282.82,4.95-35.91,8.55-70.32,15-104.18,2-10.47,11.85-19.43,18.11-29.09,6.45,10.33,18.63,20.82,18.34,30.95C2871.55,4284.91,2866.31,4321.29,2861.93,4364.94Zm268.85-3.88c19-22.94,33.94-44.11,52.24-61.88,8.93-8.68,29.05-18.82,35.4-14.74,18.79,12.06,5.3,27.69-4.44,40.18-17,21.77-34.68,43-52.59,65.07,31.58,14.11,54.48,16.49,75.8.82,84-61.72,104.4-121.16,43.29-200.56-15.72-20.42-33.56-25.15-57.5-18.22C3148.36,4193.32,3108.36,4271,3130.78,4361.06ZM2569,4366l3.93-1.49c-4.9-27.12-9.54-54.29-14.78-81.34-7.88-40.7-33.32-65.5-70.75-81.64-41.32-17.83-77.81-3.37-114.27,13-30.28,13.59-36.86,29.54-22.09,58.83,37.33,74.05,103,107.23,182.72,121.17-15.46-29.25-35.08-54.86-52.51-81.88-5.45-8.45-5-20.7-7.26-31.22,11.46.67,23.67-.85,34.13,2.73,7.58,2.59,13.92,11.2,18.95,18.43C2541.54,4323.32,2555.08,4344.77,2569,4366ZM4698.85,4787.7c48-.58,62.24-9.54,57.4-37.64-2.81-16.29-2.74-39.47-29.67-35.68C4698.41,4718.33,4687.93,4746.59,4698.85,4787.7Zm-329.28,69.95c17.08,23.29,8.36,35.75-21.2,42.87l33.63,18.65C4377.38,4896.71,4410.63,4867.3,4369.57,4857.65Z"/><path d="M8644.1,1510.75c-18.78-5.71-37.39-12-56.36-17-47.34-12.41-70.11-47.58-80.65-91-9.71-40.08,7.34-67.34,46.12-82,53.23-20.13,101.85-20.92,144.29,26.28,21.37,23.76,49.81,6.47,72.39-2,12.36-4.61,22.66-22.67,27.63-36.86,4.66-13.32,1.07-29.52,1.16-44.46.37-63.57,43-93.6,103.37-72.82,73.86,25.42,119,107.73,101,184.23-9.2,39.11-3.8,48.86,35.52,59.13,25,6.52,50.57,10.77,75.67,16.91,40.13,9.82,64.11,40.82,62.6,79.72-1.55,39.87-28.7,75.81-66.77,80.29-27.08,3.18-55.19-.72-82.67-3.26-12.65-1.16-24.8-8.89-37.37-9.48-11.76-.56-27.28.83-34.55,8-5.75,5.68-5.28,23.18-1.06,32.48,21.53,47.52,30,96.93,24.54,148.39-5.38,51.09-22.29,98.18-76.89,113.48-86,24.09-133.56-3.11-139.28-95.52-1.59-25.82-2.59-51.7-2.83-77.57-.13-15.26-5.69-21.73-21.51-20.12a399.28,399.28,0,0,1-50.67,2.41c-51.11-1.31-107.21-50.64-115.56-100.71-5.3-31.75,15.48-68.12,47.29-82.18,7.91-3.49,16.25-6,24.39-9Zm153.38,243.18c3.84,27.43,6.72,55,11.82,82.24,4.62,24.68,23,33.49,46.27,33.44,39-.09,64.76-17.28,75.85-55.11,6-20.56,10.25-43.77,7-64.48-6-37.87-18.46-74.68-27.47-112.11-11.14-46.33,21.14-86.38,67.09-82.7,14.7,1.17,28.93,7.33,43.63,9.28,25.24,3.34,50.71,7.29,76,7,25.52-.28,35.79-19.43,37.2-42.41,1.52-24.65-15-35.26-36.2-40.12-20.33-4.67-40.88-8.44-61.3-12.77-65.35-13.85-94.78-51-73.54-115.16,17.14-51.74-29.36-121.47-82.5-134.38-28.35-6.89-43.85,4.62-44.82,33.91-.56,16.92.34,33.88-.38,50.79-1.57,36.79-18,60.78-53.49,70.22-25.52,6.79-52.54,9.2-79,10.54-18.85,1-34.82-4.55-47.13-24.08-16.84-26.74-78-25.63-102.71-1.53-15.06,14.67-6.77,51.42,18.39,73.23,8.61,7.47,20.54,11.63,31.55,15.7,14.88,5.5,31.09,7.82,45.36,14.46,22.61,10.5,47.82,22.51,47.5,51.73-.34,31.05-27.33,34.06-51,40.08-30.6,7.78-40.35,32.44-24.56,60,19.5,34,47.29,50.32,88.62,47.2C8794.88,1662.46,8800.54,1669,8797.48,1753.93Z"/><path d="M984.32,368.87c166.55-8.69,321.7,145.32,322.31,323.56.6,175.27-125.31,306.94-295.74,309.17-171,2.24-321.6-148.51-322.15-322.51C688.17,499.28,811.84,369.48,984.32,368.87Zm23.56,592.24c144.85.79,259.3-114.6,260.71-262.87,1.46-153.54-131-290.77-281.73-291.95-142.9-1.12-260,117.6-260.3,263.86C726.27,826.21,855.89,960.27,1007.88,961.11Z"/><path d="M9121.15,3617.3c-.74-135.24,103.78-244.49,233.6-244.16,131.67.33,238.53,110.51,240,247.41,1.41,135.57-103.79,244-236.88,244.2C9224.5,3864.93,9121.93,3757.69,9121.15,3617.3Zm430.64,4.59c.67-113.32-86.74-205.75-195.51-206.73-106.86-1-196.23,91.13-196.53,202.52-.29,111.6,92.61,207.81,200.44,207.57C9466.4,3825,9551.11,3735.11,9551.79,3621.89Z"/><path class="cls-1" d="M6881,2645.76c46.67-14.09,48.24-16.45,39.2-70.52-28-167.76-56.72-335.41-84.27-503.24-12.41-75.58-19.66-152.11-34.71-227.11-23.55-117.38-63.94-229.38-143.54-321.12-118.46-136.53-267.66-220.44-450.1-229.65-90-4.54-179.27,16.8-257.54,64.83-112.49,69-171,174.37-189.73,303-6.3,43.28-12.61,86.85-13.93,130.44-.59,19.44-6.88,44.67,21.21,58.38,9,4.39,10.54,24.43,15.08,37.45,24.39,70.08,31.45,137.86-9.34,206.71-26.13,44.1-6.06,89.42,40.56,111.75,44.86,21.49,62.2,47.71,52.18,91.88-24.62,108.52,36.54,166.72,114.49,204,79,37.8,163.84,47,250.71,38.79,3.91-.37,7.88-.05,16-.05,13.26,50.09,26.76,100.69,40,151.35,6.54,25,22.66,53.35,15.89,74.15-5.92,18.2-37.66,28.18-58.26,41.38-129.4,82.94-221.51,201-310.64,323.18-113.23,155.2-230.42,307.53-347.08,460.19-11.11,14.54-31.37,21.78-46,34.09-9.35,7.88-16.09,18.86-25.34,30.06-56.93,2.59-117.71,2.82-177.92,8.78-68.15,6.76-135.66,19.73-203.73,27.54-16,1.84-37-1.13-49.19-10.43-189.27-144.47-391.26-267-611.45-358.48-27.58-11.46-40.49-29.28-49-57.74-9.71-32.66-23.43-66.42-44-93.13-52.21-67.89-107.19-134.31-195.36-159.62-8.22-2.36-16.55-13.84-19.73-22.88q-64-181.56-126.09-363.8c-5.41-15.85-7.53-33-9.94-49.69-6.6-45.74-26.72-82.59-57.87-118.08-26.61-30.31-40.93-71.61-59.65-108.57-6.85-13.53-11.65-32.41-30.06-22.81-7.78,4.06-13.58,26.64-9.49,36.2C3890,2404,3891.06,2445.64,3889,2489c-2.91,60,17.12,109.56,74.09,138.7,6.48,3.31,11.51,9.44,23.71,19.75H3848.9c-9,0-18.75-2.17-26.69.71-8.65,3.15-15.59,11-23.28,16.82,7.39,6.28,14.34,17.25,22.25,18,25.7,2.39,51.75,1.08,77.66,1.11,38.56,0,77.11,0,118.14,0,34.84,101.55,70.61,205.81,102.92,300-19.75,23.15-37.91,38.32-48.2,57.68-28.91,54.42-54.32,110.69-81.66,166-10.33,20.87-11.49,34.6,14.21,47.34,50.63,25.11,100.4,52.58,148,83,44.82,28.66,89.1,59.37,128.69,94.71,45.18,40.34,84.92,86.79,130.36,134.05-10.8,1.28-17.87,2.82-24.94,2.85q-822.27,2.47-1644.54,4.62c-59.94.15-115.65-11.28-151.57-66.18-5.67-8.67-10.85-19.78-10.84-29.76.06-178.4,1-356.8,1.75-535.2,0-1.85,1.26-3.69,4.4-12.39,22.94,0,48.44.1,73.94,0,87.7-.43,175.48,1,263.07-2.37,35-1.35,70.47-10.66,104.15-21.33,30.12-9.54,43.66-33.57,43.65-67q-.3-630.93.85-1261.85c.15-88.44-39.68-150.19-120.37-184.62-22.55-9.63-34.86-18.57-37.89-47.16-7.94-74.84-91.12-144-165.39-144-48.74,0-97.48,0-147.43,0-1.22-6.24-3-10.87-2.92-15.48q4.88-336.29,10-672.56c1.38-95.66,1.37-191.36,3.88-287,.8-30.48,4.18-61.79,12.49-91,17.49-61.4,70.11-86.86,123.94-106.6,13.2-4.84,32.43,10.25,48.89,10.27q1043.57,1.55,2087.13,2,1006.19,1.45,2012.35,4.42,608.49,1.17,1217,1.39c141,.26,185.48,54.25,219.24,163.8,11.84,38.45,9.91,82,9.81,123.14q-1,400.65-4.11,801.3-4.77,656.27-10.33,1312.52-3.33,438-6,876c-.4,57.8-1.22,115.6-1.2,173.4,0,29.65-12.13,50.36-37.93,65.9-55.73,33.59-117.27,42.68-180.29,46.27q-211.7,12-423.43,23.25c-44.74,2.43-89.59,3.43-134.21,7.21-23.88,2-33.85-6.65-43-28.91-78.22-190.55-156.08-381.29-238.29-570.12-58.86-135.21-149.19-246.8-274.48-327.31-21.5-13.81-45.77-23.93-69.91-32.57-6.58-2.35-17.32,6.92-26.15,10.86,4.4,8,6.88,20.74,13.48,23.48,151.18,62.78,245.68,182.88,310.36,324.64,89.19,195.47,173.51,393.63,248.93,594.76,70.12,187,134.37,377.13,185.43,570.05,49.32,186.32,79.49,377.79,116,567.4,12.19,63.38,18.45,127.94,25.76,192.15.87,7.69-6.71,20.6-13.86,24.24-51.41,26.16-103.73,50.55-155.76,75.51-54.13,26-111.77,33.27-171.16,34.93-204.33,5.7-407.6,20.31-606.32,73.51-72.5,19.4-143.78,11.55-213.7-16.12-26.51-10.49-55.31-15.2-82-22.28-35.48-137.86-71.68-275.31-106.15-413.19-44.4-177.59-85.39-356.06-132.09-533-17.42-66-46.28-129.07-71.07-193-5.66-14.6-15.15-28-24.4-40.87-40.58-56.43-58.18-57.9-122.44-35.28-99,34.84-196.22,74.47-306.05,70.89-91.93-3-155.15-43.74-208.83-112.83-43.76-56.31-43.38-117.91-29.92-181.65,2.73-13,19.82-22.55,29.35-34.45,87.1-108.74,175.71-216.35,260.47-326.9,83-108.22,159.81-221.18,243.46-328.86,57.11-73.51,128.4-133.53,208.75-181.35,16.23-9.66,36.39-12.74,54.77-18.76,2.8-.91,6.74-.31,8.53-2.07,49.85-48.9,117-42,177.51-51.4,84.39-13.12,170.21-16.93,255.37-25.16,13.8-1.34,27.48-4.5,41.06-7.51C6881.62,2707.54,6888.06,2698.45,6881,2645.76ZM5481.15,454.92V443.85c-325.89,0-651.79,1.09-977.68-.25-529.21-2.18-1058.42-6.06-1587.63-8.59-17.49-.08-47.18-11.27-47.72,18.79-.54,29.53,29.21,20.64,46.91,20.77q509.76,3.92,1019.54,6.48,717.57,4.44,1435.14,9.05,828.18,5,1656.37,9.6,435,2.37,870.08,3.88c57.8.29,115.6,3,173.36,1.91,9.91-.18,19.57-13.85,29.35-21.29-9.5-6.69-18.84-13.63-28.64-19.85-2.09-1.32-5.85,0-8.84,0q-264.6-1.31-529.2-2.65c-362.77-2.18-725.53-5.32-1088.3-6.58C6123,454,5802.06,454.92,5481.15,454.92ZM3717.94,2175.16c2-101.46-79.58-189.81-177.37-192-109.29-2.4-191.78,72.53-197.25,172.43-6.27,114.63,89.82,200.15,180.92,201C3636.1,2357.79,3715.73,2284.18,3717.94,2175.16Zm3539.27,163.22c-15.59,27.18-33.25,56-48.7,86-5.29,10.25-5.05,23.35-7.34,35.15,12.82,1.4,26.43,6.28,38.33,3.59,44.63-10.08,88.67-22.74,133-34.25,80.67-20.95,160.41-40.6,245.85-40.18,102.75.51,205.18-17.66,297.82-65.7,40.62-21.06,79.81-49.93,110.71-83.48,43.31-47,39.27-105.46-1.21-155.12-36.54-44.83-85.85-70.93-139.42-88.52-178.52-58.62-358.37-57.41-538.25-7-67.66,19-131.44,46.85-181.22,99.29-55.41,58.38-56.11,126.56,1.63,182.23C7194.5,2295.55,7226.19,2315,7257.21,2338.38ZM4682,1178.93v3.51q408.11,0,816.21,0c19.93,0,40.17,2.32,59.66-.54,9.15-1.34,16.88-12.42,25.26-19.09-8.41-7.81-16.46-16.06-25.45-23.13-2.48-2-7.73-.41-11.72-.4-106.62.36-213.25.91-319.88,1.07q-690.61,1-1381.25,1.91c-14,0-28.48-1.65-41.62,1.76-8.38,2.17-14.69,12.29-21.92,18.84,7.26,5,13.93,12.55,21.93,14.45,11.39,2.7,23.76,1.56,35.71,1.56Q4260.49,1179,4682,1178.93Zm-245.3,465.24c-72.71,0-145.42-.38-218.13.08-134.44.86-268.88,1.87-403.31,4.06-10.21.16-20.26,10.15-30.38,15.58,10.3,6.67,20.38,13.75,31.06,19.75,3,1.71,7.82.28,11.8.29l1213.12,1.25c7,0,15.19,2.24,20.64-.67,9.15-4.89,16.54-13.08,24.67-19.89-8.33-6.75-15.78-15.54-25.26-19.61-7.59-3.26-17.65-.83-26.61-.83Q4735.53,1644.15,4436.73,1644.17ZM3356.18,2671.72c0,9-.48,18,.07,26.88,7.57,123.24,137.84,200,248.8,146.67,100.76-48.41,142.82-179.73,90.17-281.52-50.12-96.89-169.95-125.11-257.12-59.48C3382.86,2545.86,3355.48,2602.25,3356.18,2671.72Zm180.08-1338c104,.24,185-77.62,185.43-178.3.42-100.15-85.64-183-189.9-182.81-102.81.18-183.31,79.72-183,180.81S3431.16,1333.49,3536.26,1333.73Zm-7.87,147c-102.91,1-184.3,81.38-183,180.71,1.24,94.77,82.68,172,181.7,172.4,101.24.36,184.19-81.77,182.82-181C3708.6,1557.7,3626.35,1479.74,3528.39,1480.69Zm771,654.25v4.12c-153.34,0-306.69-.34-460,.73-10.84.08-21.6,10.55-32.4,16.18,10.78,6.3,21.36,13,32.46,18.65,3.16,1.61,7.84.26,11.82.27l893.29,1.86c8,0,16.95,2.26,23.66-.66,9.58-4.18,17.49-12.17,26.12-18.54-8.62-7.46-16.36-16.6-26.18-21.79-6.26-3.31-15.62-.81-23.58-.81Q4522,2134.92,4299.43,2134.94Zm-1177-1946.66c-4.47.33-10.47.46-16.38,1.27-31.07,4.27-54.46,19-64.1,50.19-7.92,25.63,5.2,66.84,25.63,81.29,27.42,19.39,54.84,13.82,80.93-2.73a106.15,106.15,0,0,0,26.53-23.62c16.22-20.75,31.29-43.62,16.65-70.81C3177.71,197.8,3152.78,188.4,3122.48,188.28ZM2923.9,334.57c40.43-.3,74.39-35.06,73.37-75.11-.94-36.72-43.95-69.25-91.1-68.9-39,.29-64,21.82-64.24,55.33C2841.61,294.4,2879.05,334.91,2923.9,334.57Zm384.56-5.87c49.82,0,90.41-35.39,91.25-79.55.56-29.61-38.76-59.9-77.59-59.78-42.82.14-78,32.12-77.42,70.3C3245.33,298.27,3273.44,328.71,3308.46,328.7Z"/><path class="cls-1" d="M1829.07,1243.82h917.68c71.6,0,125.67,54.48,124.95,125.23q-5.44,536.48-10.59,1072.94-1.17,122.52-1.11,245.07c0,67.78-47.53,109-115.31,107.89-169.35-2.68-338.75-2.36-508.13-2.62q-660.57-1-1321.13-1.46c-38.11,0-75.24-6.5-98.48-39.44-12.46-17.65-23.61-41.16-23.51-62,1.08-219.16,4.73-438.3,7.3-657.46q2.29-194.27,3.41-388.54c.38-82.37-1.5-164.76-.61-247.12.23-21.55,5.19-43.55,11.14-64.44,17.13-60.11,56.64-89.31,117.67-89.31h896.72Zm-149.63,600,10,0q0-145,0-289.91c0-45.43-6-51.46-51.83-51.64-178.41-.69-356.83-2.24-535.24-1.55-83.61.33-79.63-20.85-82.68,81.85-5.34,180.24-8.85,360.55-13.79,540.81-1.44,52.33,3.47,59.77,55,60.56,192.31,2.95,384.64,5.2,577,8,27.9.41,42.14-10,41.89-40.16C1678.92,2049.11,1679.44,1946.46,1679.44,1843.82Zm588.79,753c0-2,0-4,0-6,106.63,0,213.26.74,319.88-.26,69.21-.65,113.51-81.37,74.84-139.84-18.27-27.62-39.72-59-80.34-59.06-206.32-.2-412.66,1.75-618.92-1.53-44.39-.71-68.55,16.93-83.56,51.62-10.41,24.06-16.45,51.28-18.21,77.5-2.8,41.78,35.47,77.64,77.48,77.63Q2103.82,2596.76,2268.23,2596.81Zm-899.31-7.27v4.51q155.28,0,310.55-.15c8.76,0,17.94-.77,26.21-3.42,50.28-16.1,73.88-64,65.36-125.19-7.89-56.64-47.15-84.26-101.4-84.16-191.13.34-382.26,2.13-573.39,3.22-70.71.4-114.67,39.44-122.8,109.66-6.24,53.87,30.29,95.33,84.87,95.46C1161.86,2589.71,1265.39,2589.54,1368.92,2589.54Zm884.46-911.93v-6.84c-113.47,0-227-.48-340.4.78-11,.12-29.35,9.28-31.24,17.31-4.26,18.15,12.38,21.29,27.42,21.51,228.89,3.27,457.77,6.85,686.67,8.88,9.59.09,19.3-14.1,29-21.65-9.36-6.66-18.65-19-28.08-19.12C2482.28,1677.14,2367.83,1677.61,2253.38,1677.61Zm-174.49,270v4.91c-54.6,0-109.22-.9-163.78.55-16.27.43-45.39-12-44.67,17.07.62,24.77,29,18.66,46.42,18.59,112.2-.43,224.4-2,336.6-3.34,14.87-.18,34,1.43,31.65-19.9-.78-7-19.62-16.77-30.43-17.08C2196.13,1946.77,2137.5,1947.65,2078.89,1947.65ZM987.79,1295.49c-12.75,16.7-24.75,25.6-24.89,34.68-.11,7.83,13.29,15.85,20.71,23.79,8-8.21,19.84-15.31,22.7-25C1008.24,1322.36,997.53,1312.08,987.79,1295.49Zm-75.95,65.76c10.76-14.7,22.65-23.93,21.7-31.57-1-8-17-21.68-21.79-20-10.3,3.66-19.53,14.68-24.92,24.93C885.38,1337.41,899.32,1348.25,911.84,1361.25Zm161.19-3.87c9.68-14.36,19.79-22.72,18.9-29.68-1.16-9.16-11-17.22-17-25.75-8.59,7.55-21.81,13.89-24.2,23.06C1049,1331.58,1061.76,1341.93,1073,1357.38Z"/><path class="cls-2" d="M754.05,2392.32c0,99.22.9,192.73-.26,286.2-1,82.63,62.46,149.9,144.45,150.27q324.38,1.47,648.73,2.84c4,0,8-.05,12,0,49.5,1.07,63.66,17.14,54.27,64.75-5.76,29.25-13.7,58.12-21.74,86.86-15.68,56,15.38,102.22,74.16,101.66,48.49-.46,97.45-5.73,145.23-14.26,78-13.93,107.9,33.05,102.46,96.39-5.84,68.12-28,131.83-73.58,186-39.72,47.24-77,96.54-114.83,145.34-29,37.45-27.43,70.37,7.17,103.06,18.69,17.66,40.27,32.55,61.72,46.92,39.23,26.31,47.63,64,42.45,107.33-5,41.69-28.08,68.18-67.3,83.17-76.4,29.2-154.62,20.91-233.2,15.26-31.46-2.26-63.87-2.25-94.86,2.8-38.42,6.26-49.93,29.26-35.69,65.57,11.59,29.57,26.74,57.74,40.27,86.55,25.43,54.17,21.36,82.36-24.29,121.36-52,44.4-112.57,69.64-181.69,55-23.25-4.94-47-21.13-64-38.58-26.19-27-46.11-59.88-69.91-89.29-9.85-12.17-21.4-24.29-34.71-32.07-32.79-19.15-69.73-4.39-82,31.51-3.81,11.15-7.11,23.52-6.3,35,5.95,84.42-50.75,120.91-115.7,147.62-65.14,26.8-124.5,2.76-174.51-38.29-19.48-16-30-46.49-37.73-72.44-18.34-61.9-32.27-125.11-48.7-187.6a169.71,169.71,0,0,0-15.47-38.66c-23-41.56-66.28-50-99.35-15.9-21.07,21.72-36.38,49.47-52.13,75.8-22.58,37.75-53.2,63.16-98.3,61.46-46.62-1.76-71.1-32.82-88.23-73.57-33.51-79.68-37-155.81,6.22-234.9,23.93-43.77,38.55-93.69,50.79-142.49,12.75-50.78-5.25-95.44-42.67-133-41.75-41.86-91.73-68.85-145.94-90.59a161.54,161.54,0,0,1-53.43-36c-34.64-35.22-33.78-78.94-13.09-119,22.58-43.74,49.27-86.2,79.73-124.84,52.35-66.4,110.14-128.49,163.14-194.41,15-18.68,25-43.43,30.93-67,17.19-68.73-7.27-108.91-74.54-129-7.63-2.28-15.51-3.76-23-6.27-41-13.68-56.87-56.64-27.85-87.45,45.09-47.85,98.16-84.49,168.15-85.69,46.81-.8,93.61-1.65,140.41-2.84C604.05,2494.59,682.24,2457,754.05,2392.32Z"/><path class="cls-3" d="M6566.07,5184.9c12.49,1.69,26,.64,37,5.46,101,44.41,203.54,38.33,307,11.36,129.63-33.79,261.49-50.25,395.35-54.26,74.49-2.23,150-3.11,222.89-16.28,57.51-10.39,112.17-37.67,167.35-59.35,27.36-10.76,53-25.82,84.67-41.51,8.87,63.67,16.33,122.41,25.34,180.91,23.4,152.07,30.35,305.05,23.66,458.52-5.43,124.24-13.65,248.37-21.34,372.51-5.6,90.36-12.12,180.67-18.68,271-5.57,76.67-70.14,133.7-127.91,145.57-105.28,21.63-211.22,39.53-319.68,34.16-203.9-10.11-402.69-47-597.49-108-72.08-22.55-146.35-38-218.89-59.22-45.59-13.33-91-28.74-134.36-47.89-52.71-23.25-58.45-42.55-48.22-97.69,44.14-237.88,107.62-471,168-705.06C6534.77,5382,6547.2,5285.88,6566.07,5184.9Z"/><path class="cls-1" d="M6095.28,3966.82c-16.3,175.49,51.79,314.32,171.63,436.78H4834.18C4970.84,4301,5029.26,4163.77,5022,3993.22c25.95,2.87,51,7.46,76.12,8.07,78.58,1.91,157.3,5.33,235.76,2.51,94.29-3.38,188.38-12.62,282.57-19.05a25.17,25.17,0,0,1,13.64,3.35c87.9,52,182.86,51.36,278,32.19,57.22-11.53,112.41-33.05,168.55-50C6081.21,3969,6086.06,3968.53,6095.28,3966.82Z"/><path class="cls-1" d="M4024.09,3227.82c28.68-60.39,55-117.08,82.95-173,3.14-6.29,15.85-12.34,23.1-11.31,55.25,7.84,106.12,25.51,144.8,69.15,23.07,26,48.13,50.31,71.53,76.08,32.12,35.35,44.55,78.38,49.93,125,1.21,10.45,13.77,23.2,24.31,28.41,99,48.94,201.8,91.06,297.37,145.85,111.16,63.73,216.21,138.14,323.79,208.11,14.15,9.2,26.31,23,41.61,28.52,17.33,6.24,38.34,10.82,55.72,7,116.24-25.8,233.61-38.39,352.59-36.82,4.81.07,9.61,1,20.61,2.18-27.1,99,1.55,181.5,82.6,254.52-50.5,4.28-92.05,9.18-133.74,11-71.6,3.19-143.32,3.46-214.91,6.76-207.81,9.56-389.58-58.62-550.61-185.77a1605.94,1605.94,0,0,1-150.93-135.49c-81.57-83.14-157.67-171.69-240.17-253.85-33.12-33-75.55-57.72-116.51-81.43C4135,3282,4079.16,3256.05,4024.09,3227.82Z"/><path class="cls-1" d="M5846.86,1990.79c-11.44-43.89-20.09-88.77-35.24-131.34-11.52-32.4-3.92-52.71,23-70.42,119.21-78.47,222.38-87.68,328.52-9.09,45.39,33.61,51.81,82.41,57.42,132,2,17.71-.36,35.86.6,53.74,1.84,34.47,18.69,47.19,53.19,42.5,21.59-2.94,43.33-5,65.06-6.55,19.44-1.42,28.07,9.45,32,27.8,11.28,52.85-5.7,100-27,146.7-9.48,20.79-17,42.58-27.91,62.55-5.66,10.36-17.83,17-25.11,26.73-5.66,7.59-13.41,18.85-11.42,26,9.9,35.61,23.29,70.23,34.33,105.55a679.15,679.15,0,0,1,18.55,72.15c.9,4.57-7.18,14.89-12.57,16.11-127.82,29-252.85,31.17-367.42-45.43-44.92-30-61.38-72.2-52.23-126.73,4.13-24.62,2.23-51.94-4-76.2-8.45-32.72-35-51.09-66-63.87-31.24-12.9-38.31-35.7-21.32-64.32,21.32-35.91,35.3-73.51,30.11-116.32Zm27,22.14,13.23,1.36c8.29-11.78,19.46-22.67,23.48-35.76,1.61-5.27-12.46-15.35-19.4-23.24-11.53,10.15-25.07,19-33.33,31.29C5855.44,1990.18,5868.1,2003.87,5873.86,2012.93Z"/><path class="cls-1" d="M2581.47,2892.4v-57.66c40.74,0,81.12,1.36,121.36-.43,32-1.42,64.35-4,95.53-10.8,62.35-13.53,97-57.24,98.76-126.9,3.4-134.4,5-268.85,6.19-403.28q3.72-427.26,6.25-854.53c0-5.85.59-11.7.9-17.65,71.74,12.22,120.79,71.75,120.84,148.44.1,166.34-.88,332.67-1.19,499q-.69,372-1.08,744.06c-.07,57.73-15.58,74.17-74.72,75.66-76.65,1.93-153.33,3-230,4C2677.72,2892.86,2631.11,2892.4,2581.47,2892.4Z"/><path class="cls-1" d="M6342.19,2748.26l-57.52-212.21,62.36-14.61c2.09,11.79,3.05,23.54,6.34,34.6,9.54,32.08,19.31,64.13,30.37,95.7,7.09,20.26,23.07,29.11,44.6,27.49,69.44-5.23,139-9.59,208.3-15.93,58.43-5.34,116.69-12.65,174.93-19.77,21.29-2.61,31.67,5.83,33.45,33.31-32.05,5.93-64.44,15.93-97.19,17.3C6612.34,2699.77,6477.68,2710.27,6342.19,2748.26Z"/><path class="cls-1" d="M3990.59,2596.94c-50.78-23-69.61-59.62-61.75-116.75C3968.52,2499.33,3989,2537.3,3990.59,2596.94Z"/><path class="cls-1" d="M2596.42,4949.41h406.91c-4.09,12.36-7.16,26.87-13.45,39.8-35.41,72.82-30.28,142.8,10.74,212,31.43,53,65.88,105,90.14,161.27,44.54,103.26,73.78,209.31,33.35,323.32-23.66,66.74-65.65,112.48-130.1,138.57-65.38,26.46-133.39,36-201.62,16-63.56-18.69-127.49-38.76-187.19-66.87-33.53-15.78-61.78-46.44-87.14-75.06-44-49.62-56.87-109.38-36-172.81,16.4-49.9,37.39-98.33,57-147.15,16.64-41.51,35-82.34,51.17-124,35.09-90.44,33.85-182.63,11.06-275.54-1.65-6.75-3.68-13.42-5.27-20.19C2595.55,4956.83,2596.12,4954.78,2596.42,4949.41Z"/><path class="cls-1" d="M4337.9,5030h382.72c0,46.61.1,91.94,0,137.28-.26,103.64-.2,207.28-1.59,310.9-.15,10.89-6.37,24.76-14.47,32-66.45,59.36-145.81,57.14-225.64,41.12-39.61-7.95-77.42-24.73-116.23-37-24.19-7.62-23-28.7-23.26-46.53-1.27-101.62-1.2-203.27-1.48-304.91C4337.8,5119.19,4337.9,5075.51,4337.9,5030Z"/><path class="cls-1" d="M3852.46,5041.68c0,144.16.9,285.23-.63,426.28-.39,36.28-17.67,64.39-52.89,83.09-77.32,41.06-198.44,30.66-263.55-27.91-8.92-8-16-23.42-15.9-35.34q1.86-210.29,7-420.53c.21-8.65,9.95-24.43,15.44-24.5C3646.22,5041.29,3750.52,5041.68,3852.46,5041.68Z"/><path class="cls-4" d="M4655,4953.94c-.47,7.05-1.31,19.71-2.26,34H4418.78c3.42-40.94,6-79,9.89-116.92,8.24-80.06,14.61-160.64,51.49-234.4a443.72,443.72,0,0,1,21.78-38.93c13.37-21.08,30-38.44,58-33.71,30.69,5.18,58.93,16.08,66.64,50.72,11,49.21,20.14,98.81,28.21,139l-33.84,30.17,35.41,17.7v103.89l-29.82,22.85Zm-153.15-266.8c7.86-14.07,15.34-21.58,15.07-28.78-.24-6.14-9.42-11.93-14.64-17.88-6.23,6.31-16.33,12-17.5,19.11C4483.71,4665.74,4492.87,4673.57,4501.8,4687.14Zm49.91-31.91c12.12,7.4,19.85,15.8,25.17,14.48,7.34-1.83,12.86-11,19.17-17-5.59-5.56-11.71-16.07-16.63-15.54C4571.61,4638,4564.61,4646.26,4551.71,4655.23Zm-93.09,133.56c-8.71,10.17-19.4,19.31-18.06,21.71,4.57,8.16,13.38,13.94,20.58,20.63,5.33-5.8,15.38-12.05,14.88-17.29C4475.31,4806.44,4466.8,4799.8,4458.62,4788.79ZM4594,4831.06c-8.13,10.42-17.64,17.64-16.51,22.29,1.81,7.52,9.6,16.12,16.88,18.78,3.76,1.37,17.2-9.56,16.77-14C4610.35,4850.33,4602.26,4843.26,4594,4831.06Zm-118.7,136.14c8.46-11.61,16.64-18.3,17.59-25.89.55-4.43-11.94-15.52-16-14.39-7.43,2.09-15.85,10.06-18.15,17.38C4457.36,4948.59,4467,4956.35,4475.25,4967.2Zm55.26-89.7c-11-9.61-17-18.69-24.49-20.07-4.58-.85-16.72,11.07-15.91,15.53,1.35,7.47,9.26,16.39,16.52,19.15C4510.94,4893.74,4519.28,4884.75,4530.51,4877.5Zm33.21-102.78c-9.81-7.19-16.27-15.43-20.95-14.52-6.72,1.31-12.14,9.28-18.11,14.41,5.95,5.14,11.34,13.12,18.05,14.45C4547.4,4790,4553.89,4781.82,4563.72,4774.72Z"/><path class="cls-4" d="M3552,4941.4c12.18,0,19.16.45,26.06-.09,27.11-2.11,37.21-17.55,26.26-43-14.06-32.71-29.86-64.68-47.51-102.55,20.25,18.34,34.7,33.36,51.22,45.6,8.6,6.37,23.12,13.25,30.81,10,8.06-3.39,13.52-18.07,16-28.77,10.43-45.24,19.32-90.83,28.77-136.3l8.63.43c3.66,20.68,7.18,41.39,11,62,2.37,12.71,4,25.76,8.17,37.87,9.64,27.76,24.83,32.47,50.63,17.2,22.6-13.38,45.23-26.72,71.61-34.61-14.57,14.16-30.06,27.51-43.52,42.66-32.48,36.6-25.86,59.51,21,72.5,29.2,8.1,59,14.21,87.49,21l-107.52,97.3c-46.33,0-111.06.33-175.76-.52-6.61-.08-14.34-6.12-19.46-11.42C3581.63,4975.94,3568.47,4960.11,3552,4941.4Z"/><path class="cls-4" d="M2861.93,4364.94c4.38-43.65,9.62-80,10.66-116.52.29-10.13-11.89-20.62-18.34-30.95-6.26,9.66-16.11,18.62-18.11,29.09-6.48,33.86-10.08,68.27-15,104.18-97.9-71.19-106-218.05-18.55-282.82,52.48-38.87,96.74-30.21,129.74,25.39,44.55,75.07,28.24,191.42-35.21,247.47C2887.75,4349,2876.44,4355.08,2861.93,4364.94Z"/><path class="cls-4" d="M3130.78,4361.06c-22.42-90.05,17.58-167.74,92.2-189.33,23.94-6.93,41.78-2.2,57.5,18.22,61.11,79.4,40.7,138.84-43.29,200.56-21.32,15.67-44.22,13.29-75.8-.82,17.91-22.08,35.61-43.3,52.59-65.07,9.74-12.49,23.23-28.12,4.44-40.18-6.35-4.08-26.47,6.06-35.4,14.74C3164.72,4317,3149.74,4338.12,3130.78,4361.06Z"/><path class="cls-4" d="M2569,4366c-13.91-21.19-27.45-42.64-41.93-63.43-5-7.23-11.37-15.84-18.95-18.43-10.46-3.58-22.67-2.06-34.13-2.73,2.26,10.52,1.81,22.77,7.26,31.22,17.43,27,37.05,52.63,52.51,81.88-79.69-13.94-145.39-47.12-182.72-121.17-14.77-29.29-8.19-45.24,22.09-58.83,36.46-16.35,73-30.81,114.27-13,37.43,16.14,62.87,40.94,70.75,81.64,5.24,27.05,9.88,54.22,14.78,81.34Z"/><path class="cls-4" d="M4698.85,4787.7c-10.92-41.11-.44-69.37,27.73-73.32,26.93-3.79,26.86,19.39,29.67,35.68C4761.09,4778.16,4746.9,4787.12,4698.85,4787.7Zm46.83-32.91c-11.33-8.2-17.46-15.94-24.07-16.37-5.11-.33-15.82,9.4-15.16,13.06,1.23,6.85,8.1,16.35,14.12,17.61C4726.15,4770.26,4733.68,4762.09,4745.68,4754.79Z"/><path class="cls-4" d="M4369.57,4857.65c41.06,9.65,7.81,39.06,12.43,61.52l-33.63-18.65C4377.93,4893.4,4386.65,4880.94,4369.57,4857.65Z"/><path class="cls-2" d="M8797.48,1753.93c3.06-84.94-2.6-91.47-87.81-85-41.33,3.12-69.12-13.18-88.62-47.2-15.79-27.55-6-52.21,24.56-60,23.64-6,50.63-9,51-40.08.32-29.22-24.89-41.23-47.5-51.73-14.27-6.64-30.48-9-45.36-14.46-11-4.07-22.94-8.23-31.55-15.7-25.16-21.81-33.45-58.56-18.39-73.23,24.75-24.1,85.87-25.21,102.71,1.53,12.31,19.53,28.28,25,47.13,24.08,26.51-1.34,53.53-3.75,79-10.54,35.53-9.44,51.92-33.43,53.49-70.22.72-16.91-.18-33.87.38-50.79,1-29.29,16.47-40.8,44.82-33.91,53.14,12.91,99.64,82.64,82.5,134.38-21.24,64.11,8.19,101.31,73.54,115.16,20.42,4.33,41,8.1,61.3,12.77,21.2,4.86,37.72,15.47,36.2,40.12-1.41,23-11.68,42.13-37.2,42.41-25.32.29-50.79-3.66-76-7-14.7-2-28.93-8.11-43.63-9.28-46-3.68-78.23,36.37-67.09,82.7,9,37.43,21.52,74.24,27.47,112.11,3.25,20.71-1,43.92-7,64.48-11.09,37.83-36.89,55-75.85,55.11-23.23.05-41.65-8.76-46.27-33.44C8804.2,1809,8801.32,1781.36,8797.48,1753.93Z"/><path class="cls-5" d="M1007.88,961.11c-152-.84-281.61-134.9-281.32-291,.28-146.26,117.4-265,260.3-263.86,150.77,1.18,283.19,138.41,281.73,292C1267.18,846.51,1152.73,961.9,1007.88,961.11Z"/><path class="cls-5" d="M9551.79,3621.89c-.68,113.22-85.39,203.13-191.6,203.36-107.83.24-200.73-96-200.44-207.57.3-111.39,89.67-203.49,196.53-202.52C9465.05,3416.14,9552.46,3508.57,9551.79,3621.89Z"/><path d="M5481.15,454.92c320.91,0,641.83-.88,962.74.24,362.77,1.26,725.53,4.4,1088.3,6.58q264.6,1.59,529.2,2.65c3,0,6.75-1.36,8.84,0,9.8,6.22,19.14,13.16,28.64,19.85-9.78,7.44-19.44,21.11-29.35,21.29-57.76,1.09-115.56-1.62-173.36-1.91q-435-2.19-870.08-3.88-828.18-4.5-1656.37-9.6-717.57-4.34-1435.14-9.05Q3424.79,477.9,2915,474.57c-17.7-.13-47.45,8.76-46.91-20.77.54-30.06,30.23-18.87,47.72-18.79,529.21,2.53,1058.42,6.41,1587.63,8.59,325.89,1.34,651.79.25,977.68.25Z"/><path class="cls-2" d="M3717.94,2175.16c-2.21,109-81.84,182.63-193.7,181.52-91.1-.9-187.19-86.42-180.92-201,5.47-99.9,88-174.83,197.25-172.43C3638.36,1985.35,3720,2073.7,3717.94,2175.16Z"/><path d="M7257.21,2338.38c-31-23.43-62.71-42.83-88.83-68-57.74-55.67-57-123.85-1.63-182.23,49.78-52.44,113.56-80.33,181.22-99.29,179.88-50.41,359.73-51.62,538.25,7,53.57,17.59,102.88,43.69,139.42,88.52,40.48,49.66,44.52,108.09,1.21,155.12-30.9,33.55-70.09,62.42-110.71,83.48-92.64,48-195.07,66.21-297.82,65.7-85.44-.42-165.18,19.23-245.85,40.18-44.3,11.51-88.34,24.17-133,34.25-11.9,2.69-25.51-2.19-38.33-3.59,2.29-11.8,2.05-24.9,7.34-35.15C7224,2394.39,7241.62,2365.56,7257.21,2338.38Zm3.46,78c73-19.18,140-37.22,207.25-54.17,22.27-5.62,45.31-12.24,67.89-11.88,92,1.46,183-4.77,271.8-30.18,63.52-18.17,125.31-40.64,174-87.91,45.79-44.5,47.12-96.58-2.29-136.58-32.55-26.35-71.08-49.14-110.66-62.32-181.64-60.47-364.39-55.53-544.53,6.51-42.27,14.56-83,39.4-118.18,67.34-54,42.86-52.33,101.56.47,144.41,22.86,18.56,49.57,33,76,46.34,31,15.65,33.71,20.61,16.07,51.64C7286.86,2370,7275.34,2390.47,7260.67,2416.4Z"/><path d="M4682,1178.93q-421.53,0-843.07,0c-11.95,0-24.32,1.14-35.71-1.56-8-1.9-14.67-9.43-21.93-14.45,7.23-6.55,13.54-16.67,21.92-18.84,13.14-3.41,27.67-1.74,41.62-1.76q690.63-1,1381.25-1.91c106.63-.16,213.26-.71,319.88-1.07,4,0,9.24-1.55,11.72.4,9,7.07,17,15.32,25.45,23.13-8.38,6.67-16.11,17.75-25.26,19.09-19.49,2.86-39.73.55-59.66.54q-408.1,0-816.21,0Z"/><path d="M4436.73,1644.17q298.8,0,597.6,0c9,0,19-2.43,26.61.83,9.48,4.07,16.93,12.86,25.26,19.61-8.13,6.81-15.52,15-24.67,19.89-5.45,2.91-13.67.68-20.64.67l-1213.12-1.25c-4,0-8.77,1.42-11.8-.29-10.68-6-20.76-13.08-31.06-19.75,10.12-5.43,20.17-15.42,30.38-15.58,134.43-2.19,268.87-3.2,403.31-4.06C4291.31,1643.79,4364,1644.17,4436.73,1644.17Z"/><path d="M3356.18,2671.72c-.7-69.47,26.68-125.86,81.92-167.45,87.17-65.63,207-37.41,257.12,59.48,52.65,101.79,10.59,233.11-90.17,281.52-111,53.32-241.23-23.43-248.8-146.67C3355.7,2689.67,3356.18,2680.68,3356.18,2671.72Zm201.73-161.59c-125,.11-198.5,130.5-146.21,235.9,39.49,79.6,134.34,100.35,203.93,44.62,60.66-48.57,80-139.11,43.37-207.48C3634.73,2537.84,3597.63,2511.28,3557.91,2510.13Z"/><path d="M3536.26,1333.73c-105.1-.24-187.15-79.14-187.46-180.3s80.18-180.63,183-180.81c104.26-.18,190.32,82.66,189.9,182.81C3721.27,1256.11,3640.3,1334,3536.26,1333.73Zm144.07-179.19c-.61-79.12-67.64-141.77-150.63-140.76-77.83.94-141.2,62-141.49,136.4-.31,78.07,68.65,145.71,148.09,145.26S3680.92,1231.17,3680.33,1154.54Z"/><path d="M3528.39,1480.69c98-1,180.21,77,181.53,172.08,1.37,99.26-81.58,181.39-182.82,181-99-.36-180.46-77.63-181.7-172.4C3344.09,1562.07,3425.48,1481.69,3528.39,1480.69Zm2.81,41.86c-79.28-1.4-143.15,57.13-144.28,132.2-1.11,73.76,59.18,136.12,132.81,137.36,82.09,1.38,147.52-56.32,148.82-131.25C3669.9,1582.93,3611.34,1524,3531.2,1522.55Z"/><path d="M4299.43,2134.94q222.58,0,445.17,0c8,0,17.32-2.5,23.58.81,9.82,5.19,17.56,14.33,26.18,21.79-8.63,6.37-16.54,14.36-26.12,18.54-6.71,2.92-15.69.68-23.66.66l-893.29-1.86c-4,0-8.66,1.34-11.82-.27-11.1-5.67-21.68-12.35-32.46-18.65,10.8-5.63,21.56-16.1,32.4-16.18,153.33-1.07,306.68-.73,460-.73Z"/><path d="M3122.48,188.28c30.3.12,55.23,9.52,69.26,35.59,14.64,27.19-.43,50.06-16.65,70.81a106.15,106.15,0,0,1-26.53,23.62c-26.09,16.55-53.51,22.12-80.93,2.73-20.43-14.45-33.55-55.66-25.63-81.29,9.64-31.22,33-45.92,64.1-50.19C3112,188.74,3118,188.61,3122.48,188.28Zm9,37.21c-37.68.13-56.69,14.81-52.47,36.25,2.09,10.58,12.29,28.85,16.12,28.18a121.28,121.28,0,0,0,46.72-18.78c8.41-5.78,18.56-24.31,15.73-28.17C3150.44,233.17,3136.38,228.4,3131.52,225.49Z"/><path d="M2923.9,334.57c-44.85.34-82.29-40.17-82-88.68.22-33.51,25.22-55,64.24-55.33,47.15-.35,90.16,32.18,91.1,68.9C2998.29,299.51,2964.33,334.27,2923.9,334.57Zm-15.56-116.89c-12.84,14.31-25.53,21.95-26.82,31.18-3.06,21.91,23.28,51.69,40.77,45.48,14.35-5.09,24.44-22.15,36.43-33.91Z"/><path d="M3308.46,328.7c-35,0-63.13-30.43-63.76-69-.62-38.18,34.6-70.16,77.42-70.3,38.83-.12,78.15,30.17,77.59,59.78C3398.87,293.31,3358.28,328.7,3308.46,328.7ZM3329.06,224c-27.64,6.11-47.17,13.49-43.25,37.12,1.79,10.74,16.1,26,26.39,27.41,23,3.24,50.19-19.48,45.12-36.5C3353.63,239.61,3336.81,231.15,3329.06,224Z"/><path d="M1679.44,1843.82c0,102.64-.52,205.29.32,307.92.25,30.17-14,40.57-41.89,40.16-192.32-2.78-384.65-5-577-8-51.54-.79-56.45-8.23-55-60.56,4.94-180.26,8.45-360.57,13.79-540.81,3-102.7-.93-81.52,82.68-81.85,178.41-.69,356.83.86,535.24,1.55,45.82.18,51.82,6.21,51.83,51.64q0,144.94,0,289.91Zm-626.66,75.62,6.83,1.15c3.24-4.93,6.74-9.71,9.7-14.8,44.89-77.5,89.22-155.35,135.17-232.21,6.09-10.18,20.18-20.56,31-21.07,6.74-.32,17.26,16.77,21,27.77,10,29.14,17,59.27,25.47,88.92,13.73,48.07,27.69,96.07,43.6,151.23,23.51-39.12,42.19-71.83,62.76-103.31,5-7.63,16.17-15.27,24.53-15.28,6.13,0,15.32,11.39,18,19.41,36.3,109.36,71.7,219,106.88,327.24h101.58c3.21-202.29,6.38-402.1,9.6-604.47h-587C1058.85,1669.83,1055.81,1794.63,1052.78,1919.44Zm172.5-200.68c-54.89,94.71-104.4,183-156.88,269.55-30.54,50.33-15,102.92-20.89,158.76h449.67c-30.26-88.83-60.8-178.44-92.61-271.83-6.49,7.87-10.55,12-13.65,16.69-16.92,25.76-32.28,52.67-50.76,77.24-17.42,23.16-35.89,19.17-45.65-8-3.36-9.33-5.5-19.1-8.22-28.66C1266.67,1863.79,1247.05,1795,1225.28,1718.76Z"/><path d="M2268.23,2596.81q-164.4,0-328.82,0c-42,0-80.28-35.85-77.48-77.63,1.76-26.22,7.8-53.44,18.21-77.5,15-34.69,39.17-52.33,83.56-51.62,206.26,3.28,412.6,1.33,618.92,1.53,40.62,0,62.07,31.44,80.34,59.06,38.67,58.47-5.63,139.19-74.84,139.84-106.62,1-213.25.26-319.88.26C2268.24,2592.78,2268.24,2594.8,2268.23,2596.81Zm-1.44-39.18v-6c106.49,0,213,.63,319.47-.78,13.76-.18,33.52-7.08,40-17.44,29.11-46.46-2.37-99.32-56.93-99.43q-300.09-.61-600.18-1.24c-43.65-.1-55.83,9.33-65.84,52-1.14,4.84-2.56,9.64-3.36,14.54-6.21,38.4,11,58.31,50.38,58.31Z"/><path d="M1368.92,2589.54c-103.53,0-207.06.17-310.59-.07-54.58-.13-91.11-41.59-84.87-95.46,8.13-70.22,52.09-109.26,122.8-109.66,191.13-1.09,382.26-2.88,573.39-3.22,54.25-.1,93.51,27.52,101.4,84.16,8.52,61.18-15.08,109.09-65.36,125.19-8.27,2.65-17.45,3.41-26.21,3.42q-155.28.34-310.55.15Zm8-167.54v4.31c-98.49,0-197-.21-295.48.09-42.16.13-80,52.86-65.08,92.69,3.87,10.37,15.68,21.19,26.25,24.86,16.45,5.7,34.95,7.4,52.59,7.45,196,.51,392.07.84,588.1-.54,14.2-.1,33.34-10.35,41.41-22,17.66-25.43,13.9-55.41,1.26-82.64-11-23.66-34.12-24.26-56.49-24.26Z"/><path d="M2253.38,1677.61c114.45,0,228.9-.47,343.33.87,9.43.11,18.72,12.46,28.08,19.12-9.66,7.55-19.37,21.74-29,21.65-228.9-2-457.78-5.61-686.67-8.88-15-.22-31.68-3.36-27.42-21.51,1.89-8,20.26-17.19,31.24-17.31,113.45-1.26,226.93-.78,340.4-.78Z"/><path d="M2078.89,1947.65c58.61,0,117.24-.88,175.79.8,10.81.31,29.65,10.09,30.43,17.08,2.36,21.33-16.78,19.72-31.65,19.9-112.2,1.3-224.4,2.91-336.6,3.34-17.37.07-45.8,6.18-46.42-18.59-.72-29,28.4-16.64,44.67-17.07,54.56-1.45,109.18-.55,163.78-.55Z"/><path d="M987.79,1295.49c9.74,16.59,20.45,26.87,18.52,33.43-2.86,9.73-14.69,16.83-22.7,25-7.42-7.94-20.82-16-20.71-23.79C963,1321.09,975,1312.19,987.79,1295.49Z"/><path d="M911.84,1361.25c-12.52-13-26.46-23.84-25-26.6,5.39-10.25,14.62-21.27,24.92-24.93,4.83-1.72,20.8,12,21.79,20C934.49,1337.32,922.6,1346.55,911.84,1361.25Z"/><path d="M1073,1357.38c-11.27-15.45-24.06-25.8-22.35-32.37,2.39-9.17,15.61-15.51,24.2-23.06,6.09,8.53,15.89,16.59,17,25.75C1092.82,1334.66,1082.71,1343,1073,1357.38Z"/><path d="M5873.86,2012.93c-5.76-9.06-18.42-22.75-16-26.35,8.26-12.34,21.8-21.14,33.33-31.29,6.94,7.89,21,18,19.4,23.24-4,13.09-15.19,24-23.48,35.76Z"/><path d="M4501.8,4687.14c-8.93-13.57-18.09-21.4-17.07-27.55,1.17-7.14,11.27-12.8,17.5-19.11,5.22,6,14.4,11.74,14.64,17.88C4517.14,4665.56,4509.66,4673.07,4501.8,4687.14Z"/><path d="M4551.71,4655.23c12.9-9,19.9-17.2,27.71-18,4.92-.53,11,10,16.63,15.54-6.31,6-11.83,15.16-19.17,17C4571.56,4671,4563.83,4662.63,4551.71,4655.23Z"/><path d="M4458.62,4788.79c8.18,11,16.69,17.65,17.4,25.05.5,5.24-9.55,11.49-14.88,17.29-7.2-6.69-16-12.47-20.58-20.63C4439.22,4808.1,4449.91,4799,4458.62,4788.79Z"/><path d="M4594,4831.06c8.31,12.2,16.4,19.27,17.14,27,.43,4.47-13,15.4-16.77,14-7.28-2.66-15.07-11.26-16.88-18.78C4576.31,4848.7,4585.82,4841.48,4594,4831.06Z"/><path d="M4475.25,4967.2c-8.23-10.85-17.89-18.61-16.54-22.9,2.3-7.32,10.72-15.29,18.15-17.38,4-1.13,16.53,10,16,14.39C4491.89,4948.9,4483.71,4955.59,4475.25,4967.2Z"/><path d="M4530.51,4877.5c-11.23,7.25-19.57,16.24-23.88,14.61-7.26-2.76-15.17-11.68-16.52-19.15-.81-4.46,11.33-16.38,15.91-15.53C4513.5,4858.81,4519.54,4867.89,4530.51,4877.5Z"/><path d="M4563.72,4774.72c-9.83,7.1-16.32,15.27-21,14.34-6.71-1.33-12.1-9.31-18.05-14.45,6-5.13,11.39-13.1,18.11-14.41C4547.45,4759.29,4553.91,4767.53,4563.72,4774.72Z"/><path d="M4745.68,4754.79c-12,7.3-19.53,15.47-25.11,14.3-6-1.26-12.89-10.76-14.12-17.61-.66-3.66,10.05-13.39,15.16-13.06C4728.22,4738.85,4734.35,4746.59,4745.68,4754.79Z"/><path class="cls-3" d="M7260.67,2416.4c14.67-25.93,26.19-46.39,37.8-66.8,17.64-31,14.94-36-16.07-51.64-26.46-13.35-53.17-27.78-76-46.34-52.8-42.85-54.48-101.55-.47-144.41,35.21-27.94,75.91-52.78,118.18-67.34,180.14-62,362.89-67,544.53-6.51,39.58,13.18,78.11,36,110.66,62.32,49.41,40,48.08,92.08,2.29,136.58-48.64,47.27-110.43,69.74-174,87.91-88.84,25.41-179.78,31.64-271.8,30.18-22.58-.36-45.62,6.26-67.89,11.88C7400.67,2379.18,7333.69,2397.22,7260.67,2416.4Zm321.85-307.24c-38.54-.66-68.46,26.06-69.69,62.24-1.16,34.06,22.46,58.54,56.87,58.93,36.61.42,67.83-29,68.75-64.72C7639.28,2133.67,7615.55,2109.73,7582.52,2109.16Zm-163.57,54c-.16-32.57-23.57-57.06-55.08-57.61-34.49-.6-65.28,29.92-64.64,64.1.58,31.45,25.36,54.88,58,54.85C7393.46,2224.42,7419.12,2198.9,7419,2163.11Zm389,67.66c30.83.1,52.46-19.2,53.37-47.62,1-30.33-27-56.61-60.1-56.53-30.16.08-52.44,20.25-53.38,48.32C7746.82,2206.11,7773.25,2230.65,7808,2230.77Z"/><path class="cls-3" d="M3557.91,2510.13c39.72,1.15,76.82,27.71,101.09,73,36.62,68.37,17.29,158.91-43.37,207.48-69.59,55.73-164.44,35-203.93-44.62C3359.41,2640.63,3432.93,2510.24,3557.91,2510.13Z"/><path class="cls-3" d="M3680.33,1154.54c.59,76.63-64.64,140.44-144,140.9s-148.4-67.19-148.09-145.26c.29-74.37,63.66-135.46,141.49-136.4C3612.69,1012.77,3679.72,1075.42,3680.33,1154.54Z"/><path class="cls-3" d="M3531.2,1522.55c80.14,1.42,138.7,60.38,137.35,138.31-1.3,74.93-66.73,132.63-148.82,131.25-73.63-1.24-133.92-63.6-132.81-137.36C3388.05,1579.68,3451.92,1521.15,3531.2,1522.55Z"/><path class="cls-5" d="M3131.52,225.49c4.86,2.91,18.92,7.68,26.1,17.48,2.83,3.86-7.32,22.39-15.73,28.17a121.28,121.28,0,0,1-46.72,18.78c-3.83.67-14-17.6-16.12-28.18C3074.83,240.3,3093.84,225.62,3131.52,225.49Z"/><path class="cls-2" d="M2908.34,217.68l50.38,42.75c-12,11.76-22.08,28.82-36.43,33.91-17.49,6.21-43.83-23.57-40.77-45.48C2882.81,239.63,2895.5,232,2908.34,217.68Z"/><path class="cls-1" d="M3329.06,224c7.75,7.2,24.57,15.66,28.26,28,5.07,17-22.13,39.74-45.12,36.5-10.29-1.44-24.6-16.67-26.39-27.41C3281.89,237.44,3301.42,230.06,3329.06,224Z"/><path class="cls-3" d="M1052.78,1919.44c3-124.81,6.07-249.61,9.13-375.42h587c-3.22,202.37-6.39,402.18-9.6,604.47H1537.74c-35.18-108.22-70.58-217.88-106.88-327.24-2.67-8-11.86-19.43-18-19.41-8.36,0-19.54,7.65-24.53,15.28-20.57,31.48-39.25,64.19-62.76,103.31-15.91-55.16-29.87-103.16-43.6-151.23-8.48-29.65-15.52-59.78-25.47-88.92-3.75-11-14.27-28.09-21-27.77-10.84.51-24.93,10.89-31,21.07-46,76.86-90.28,154.71-135.17,232.21-3,5.09-6.46,9.87-9.7,14.8Zm437.53-160.07c49.6.83,84.27-29.76,85.55-75.49,1.57-56.09-41.79-100.44-98.71-101-49.66-.46-86.31,32.67-87.07,78.71C1389.22,1713.63,1435.17,1758.45,1490.31,1759.37Z"/><path class="cls-1" d="M1225.28,1718.76c21.77,76.26,41.39,145,61,213.79,2.72,9.56,4.86,19.33,8.22,28.66,9.76,27.13,28.23,31.12,45.65,8,18.48-24.57,33.84-51.48,50.76-77.24,3.1-4.72,7.16-8.82,13.65-16.69,31.81,93.39,62.35,183,92.61,271.83H1047.51c5.91-55.84-9.65-108.43,20.89-158.76C1120.88,1901.79,1170.39,1813.47,1225.28,1718.76Z"/><path class="cls-1" d="M2266.79,2557.63H1950.33c-39.34,0-56.59-19.91-50.38-58.31.8-4.9,2.22-9.7,3.36-14.54,10-42.69,22.19-52.12,65.84-52q300.09.72,600.18,1.24c54.56.11,86,53,56.93,99.43-6.48,10.36-26.24,17.26-40,17.44-106.48,1.41-213,.78-319.47.78Z"/><path class="cls-5" d="M1377,2422h292.56c22.37,0,45.5.6,56.49,24.26,12.64,27.23,16.4,57.21-1.26,82.64-8.07,11.62-27.21,21.87-41.41,22-196,1.38-392.07,1-588.1.54-17.64-.05-36.14-1.75-52.59-7.45-10.57-3.67-22.38-14.49-26.25-24.86-14.87-39.83,22.92-92.56,65.08-92.69,98.49-.3,197-.09,295.48-.09Z"/><path d="M7582.52,2109.16c33,.57,56.76,24.51,55.93,56.45-.92,35.75-32.14,65.14-68.75,64.72-34.41-.39-58-24.87-56.87-58.93C7514.06,2135.22,7544,2108.5,7582.52,2109.16Zm25,55c-16.16-7.65-26.86-16.36-31-13.93-9.48,5.58-15.77,16.6-23.36,25.41,6.47,4.53,14.65,14.1,19.06,12.59C7582.61,2184.69,7591.2,2175.87,7607.52,2164.17Z"/><path d="M7811.5,2118.12c33,.56,56.75,24.5,55.93,56.44-.92,35.76-32.15,65.14-68.76,64.72-34.41-.39-58-24.87-56.87-58.93C7743,2144.17,7773,2117.45,7811.5,2118.12Zm25,55c-16.16-7.65-26.86-16.36-31-13.93-9.49,5.58-15.78,16.6-23.37,25.41,6.47,4.54,14.65,14.1,19.06,12.59C7811.58,2193.64,7820.18,2184.82,7836.49,2173.12Z"/><path d="M7419,2163.11c.17,35.79-25.49,61.31-61.7,61.34-32.66,0-57.44-23.4-58-54.85-.64-34.18,30.15-64.7,64.64-64.1C7395.38,2106.05,7418.79,2130.54,7419,2163.11Zm-59.2,28.64c8.51-12.74,16.38-20.46,18.34-29.47.8-3.66-14.27-15.7-16.87-14.28-8.2,4.47-16.19,12.62-19.5,21.18C7340.32,2172.8,7350.82,2181,7359.75,2191.75Z"/><path d="M1490.31,1759.37c-55.14-.92-101.09-45.74-100.23-97.75.76-46,37.41-79.17,87.07-78.71,56.92.53,100.28,44.88,98.71,101C1574.58,1729.61,1539.91,1760.2,1490.31,1759.37Zm2.4-39.2c24.77-.56,45-20.48,43.88-43.09-1.35-26-33.85-54.63-61.94-54.49-25,.13-44.21,19.45-43.06,43.2C1432.93,1693.42,1463.72,1720.82,1492.71,1720.17Z"/><path class="cls-1" d="M7607.52,2164.17c-16.32,11.7-24.91,20.52-35.31,24.07-4.41,1.51-12.59-8.06-19.06-12.59,7.59-8.81,13.88-19.83,23.36-25.41C7580.66,2147.81,7591.36,2156.52,7607.52,2164.17Z"/><path class="cls-1" d="M7836.49,2173.75c-16.31,11.7-24.91,20.52-35.31,24.08-4.41,1.5-12.59-8.06-19.06-12.6,7.59-8.81,13.88-19.83,23.37-25.41C7809.63,2157.39,7820.33,2166.11,7836.49,2173.75Z"/><path class="cls-1" d="M7359.75,2191.75c-8.93-10.74-19.43-18.95-18-22.57,3.31-8.56,11.3-16.71,19.5-21.18,2.6-1.42,17.67,10.62,16.87,14.28C7376.13,2171.29,7368.26,2179,7359.75,2191.75Z"/><path class="cls-1" d="M1492.71,1720.17c-29,.65-59.78-26.75-61.12-54.38-1.15-23.75,18.11-43.07,43.06-43.2,28.09-.14,60.59,28.45,61.94,54.49C1537.76,1699.69,1517.48,1719.61,1492.71,1720.17Z"/><path d="M6497.56,697.13c0,6.66,9.26,26.92,9.26,31s-13.89,12.74-18.52,12.74c-5.79,0-30.4-30.69-30.4-41.4,0-15.92,35.61-51,57.61-57.61,7.23-2.32,29.23-4.63,44.87-4.63,14.18,0,25.76.29,34.45,2.6,28.94,7.82,70.63,42.56,70.63,76.43,0,45.16-44.29,126.5-92.64,126.5-17.65,0-35.89-6.94-46.6-12.15-7.24,7.52-14.77,12.15-19.69,12.15-8.68,0-26.34-12.73-26.34-17.37,0-2.31,13-11.86,15.92-20.55,3.18-9,24.61-90.32,29.24-107.11,2.6-9.84,13.89-26.92,17.08-26.92,8.1,0,32.13,15.34,32.13,20.26,0,2.32-6.08,11.58-9,19.4-5.21,14.47-19.11,73.24-26.06,96.11,7.24,5.5,15.35,12.16,23.45,12.16,35,0,60.22-75.85,60.22-111.17,0-18.52-18.53-30.68-28.95-35.89-7.24-3.77-17.95-5.21-33.58-5.21-17.08,0-35,2.89-42.85,5.21C6509.43,674,6497.56,689.61,6497.56,697.13Z"/><path d="M6725.09,706.68c14.76,0,43.42,14.48,43.42,26.93,0,14.47-18.81,62.24-38.21,62.24a124.85,124.85,0,0,1-23.16-2.61s-1.74,3.76-1.74,11.29c0,6.08,12.45,12.45,19.11,12.45,15.63,0,38.5-5.5,57.32-42.56,0,0,2.31-5.21,6.08-5.21s9.84,4.64,9.84,8.11-3.47,10.13-3.47,10.13c-19.69,37.35-44.87,55.29-68.32,55.29-25.48,0-63.4-18.81-63.4-41.39C6662.56,768.64,6693.83,706.68,6725.09,706.68Zm14.76,30.69c0-1.45-2.6-3.47-4.92-3.47-9,0-24.31,28.66-26.92,40.81C6727.7,771.82,6739.85,747.79,6739.85,737.37Z"/><path d="M6901.38,774.42s2.61-5.21,6.37-5.21,9.85,4.64,9.85,8.11-3.77,10.13-3.77,10.13c-15.92,28.95-44,55.29-87.42,55.29-28.95,0-62.24-31-62.24-48.92,0-14.76,25.76-27.5,25.76-27.5s26.64-40.53,36.48-56.74c1.73-3.18,7.52-6.66,11.58-6.66,5.79,0,24.31,13.32,24.31,18.53,0,28.08,10.72,51.24,10.72,72.95a36,36,0,0,1-5.79,19.11C6875.91,807.43,6886.62,800.48,6901.38,774.42Zm-93.79,18.24c0,14.48,7.82,24.61,11.29,24.61,5.21,0,11.87-5.21,11.87-15.63,0-20.85-3.76-31.27-3.76-49.5C6827,752.14,6807.59,778.19,6807.59,792.66Z"/><path d="M6917.3,712.76c1.16-4,5.21-6.08,11.58-6.08,5.79,0,28.95,13.61,28.95,19.11,0,6.66-23.16,69.77-23.16,90,0,1.16,2,2.61,2.9,2.61,8.39,0,23.45-17.95,38.21-44,0,0,2.32-5.21,6.08-5.21s9.84,4.64,9.84,8.11-4.05,10.13-4.05,10.13c-15.63,28.95-33,55.29-53.85,55.29-16.21,0-42-12.15-42-25.18C6891.83,804,6912.38,730.71,6917.3,712.76Zm13.9-31.26c0-11.58,7.24-32.71,19.11-32.71,7.81,0,22.86,5.5,22.86,15.05,0,11.58-7.52,32.71-19.1,32.71C6946.25,696.55,6931.2,691.05,6931.2,681.5Z"/><path d="M7076.52,817.27c16.79-12.16,28.94-22.58,39.95-42.85,0,0,2.89-5.21,6.36-5.21,3.77,0,9.85,4.64,9.85,8.11s-3.77,10.13-3.77,10.13C7113,815,7092.15,829.14,7069,842.74c-9.55,33-19.4,63.4-24.9,73.24-5.21,9.27-22.58,13.61-33.87,13.61-17.94,0-38.21-18.53-38.21-28.37,0-10.42,3.48-18,12.45-24.61,11.58-9,22.87-15.63,41.69-27.79,4.34-12.73,6.36-18.23,6.36-18.23s-12.44,12.15-24,12.15c-15.63,0-40.24-19.39-40.24-35,0-38.22,33.87-101,63.69-101,23.15,0,38.5,15.64,38.5,15.64,10.71,0,27.21,3.76,27.21,11C7097.65,738.82,7088.67,775,7076.52,817.27Zm-58.19,57.61c-19.69,13-23.74,19.68-23.74,24.31,0,1.45,2.61,3.77,4.63,3.77,3.48,0,7.82-2.9,10.14-5.79C7011.67,894.56,7014.28,887.61,7018.33,874.88Zm-7.53-66c0,3.19,2.61,6.37,5.79,6.37,4.63,0,13-5.5,21.13-21.71,6.08-12.16,14.77-45.45,14.77-53.55,0-1.74-5.21-4.64-9.84-4.64C7029.91,735.34,7010.8,783.4,7010.8,808.87Z"/><path d="M7220.39,817.85c8.68,0,24-17.37,38.21-43.43,0,0,2.6-5.21,6.37-5.21s9.84,4.64,9.84,8.11-3.76,10.13-3.76,10.13c-15.92,28.95-33,55.29-53.85,55.29-13,0-42-12.15-42-25.18,0-18.53,16.21-64.85,16.21-75.85a6.23,6.23,0,0,0-5.79-5.79c-6.08,0-17.37,4.93-21.13,14.19-7.82,19.1-20.85,77.58-22.58,86-1.16,3.76-5.79,6.65-11,6.65-6.66,0-27.51-7.23-27.51-15,0-7.53,22-95.24,28.09-114.93,1.73-4,7.52-6.08,11.86-6.08,6.66,0,19.4,14.19,19.4,14.19s26.92-14.19,43.42-14.19c11,0,29.82,12.74,29.82,23.45,0,13.61-18,69.19-18,84.53C7218.07,815.82,7218.94,817.85,7220.39,817.85Z"/><path d="M6727.46,923.68V937H6749v13.27h-21.51v26.52H6714.3V910.51h42.63v13.17Z"/><path d="M6798.24,977.5a32.89,32.89,0,0,1-12.23-2.37,34.28,34.28,0,0,1-10.65-6.68,32.75,32.75,0,0,1-7.54-10.42,32.18,32.18,0,0,1-2.84-13.69,32.68,32.68,0,0,1,2.51-12.6,33.65,33.65,0,0,1,17.48-18,31.62,31.62,0,0,1,13.27-2.75,32.37,32.37,0,0,1,12.36,2.46,33.23,33.23,0,0,1,10.61,6.92,34.61,34.61,0,0,1,7.39,10.56,31.91,31.91,0,0,1,2.79,13.41,32.28,32.28,0,0,1-2.46,12.41,34.11,34.11,0,0,1-6.87,10.61,32.94,32.94,0,0,1-10.51,7.39A32.13,32.13,0,0,1,6798.24,977.5Zm0-53.53a19.73,19.73,0,0,0-8,1.61,20.35,20.35,0,0,0-6.45,4.4,21.38,21.38,0,0,0-4.35,6.49,20,20,0,0,0,0,15.73,20.67,20.67,0,0,0,4.35,6.44,19.85,19.85,0,0,0,6.5,4.31,20.12,20.12,0,0,0,7.91,1.57,19.19,19.19,0,0,0,7.81-1.61,21.18,21.18,0,0,0,6.4-4.36,20.93,20.93,0,0,0,4.36-6.4,19.16,19.16,0,0,0,1.61-7.81,19.58,19.58,0,0,0-1.61-7.87A21,21,0,0,0,6806,925.58,19,19,0,0,0,6798.24,924Z"/><path d="M6903.4,976.83h-16.11l-18-25.29h-8v25.29h-13.07V910.51h26.81a19.34,19.34,0,0,1,7.86,1.62,20.76,20.76,0,0,1,6.49,4.4,21.76,21.76,0,0,1,4.46,6.49,19.3,19.3,0,0,1,1.65,8,20.2,20.2,0,0,1-3.22,11.23,19.58,19.58,0,0,1-8.43,7.34Zm-30.79-38.37c3.34,0,5.81-.74,7.39-2.22a7,7,0,0,0,2.36-5.26,6.71,6.71,0,0,0-2.36-5.16c-1.58-1.42-4.05-2.14-7.39-2.14h-11.28v14.78Z"/><path d="M5861.52,1148.36c-24-6.95-36.76-16.21-36.76-44.87v-20.85c0-28.66,12.74-37.92,36.76-44.87l110.3-31.55c7.23-1.45,10.42,1.45,10.42,9v38.22c0,7.52-3.19,10.71-10.42,11.86l-83.08,22.3c-4.06.86-4.93,2-4.93,5.49s.87,4.64,4.93,5.5l83.08,22.3c7.23,1.15,10.42,4.34,10.42,11.87v38.21c0,7.52-3.19,10.42-10.42,9Z"/><path d="M7740.68,963.23c.87-7.23,3.19-10.42,10.43-10.42h42c7.24,0,11.29,3.19,10.42,10.42l-34.74,239.7c-.86,7.23-3.18,10.42-10.42,10.42h-42c-7.24,0-11.29-3.19-10.42-10.42Z"/><path d="M7841.42,1170.22c-7.24,1.44-10.42-1.45-10.42-9V1123c0-7.53,3.18-10.71,10.42-11.87l83.08-22.29c4.06-.87,4.93-2,4.93-5.5s-.87-4.63-4.93-5.5l-83.08-22.29c-7.24-1.16-10.42-4.34-10.42-11.87V1005.5c0-7.53,3.18-10.42,10.42-9l110.3,31.55c24,7,36.76,16.21,36.76,44.87v20.84c0,28.66-12.74,37.92-36.76,44.87Z"/><path d="M6047.85,1025.76H6117q20.46,0,33.05,5.55a53.69,53.69,0,0,1,20.82,15.94,65.87,65.87,0,0,1,11.92,24.15,112.05,112.05,0,0,1,3.7,29.2q0,24.15-5.5,37.47a61.93,61.93,0,0,1-15.26,22.31,49.78,49.78,0,0,1-21,12,108.17,108.17,0,0,1-27.76,4.11h-69.18Zm46.57,34.13v82.34h11.41q14.6,0,20.76-3.24t9.67-11.3q3.48-8.07,3.49-26.17,0-23.94-7.81-32.79t-25.91-8.84Z"/><path d="M6210.89,1025.76h124.8v32.18h-78.13v24H6330v30.74h-72.47v29.7H6338v34.13H6210.89Z"/><path d="M6348.23,1025.76h48.68l33.92,108.45,33.48-108.45h47.27l-56,150.7h-50.48Z"/><path d="M6526.69,1025.76h124.8v32.18h-78.13v24h72.47v30.74h-72.47v29.7h80.39v34.13H6526.69Z"/><path d="M6678.83,1025.76h46.57v113.59h72.68v37.11H6678.83Z"/><path d="M6809.8,1101.22q0-36.92,20.56-57.47t57.26-20.56q37.62,0,58,20.2T6966,1100q0,26.43-8.89,43.33a63.4,63.4,0,0,1-25.7,26.32q-16.81,9.4-41.89,9.4-25.5,0-42.2-8.12t-27.09-25.7Q6809.8,1127.63,6809.8,1101.22Zm46.57.2q0,22.82,8.48,32.79t23.08,10q15,0,23.23-9.77t8.22-35.06q0-21.27-8.58-31.09t-23.28-9.82q-14.1,0-22.62,10T6856.37,1101.42Z"/><path d="M6990.83,1025.76h77.41q25.29,0,37.88,12t12.59,34.23q0,22.82-13.72,35.67t-41.89,12.85h-25.5v55.92h-46.77ZM7037.6,1090H7049q13.47,0,18.92-4.68a15.07,15.07,0,0,0,5.45-12,16.75,16.75,0,0,0-4.73-12q-4.74-4.93-17.79-4.94H7037.6Z"/><path d="M7143,1025.76h124.8v32.18h-78.13v24h72.48v30.74h-72.48v29.7H7270v34.13H7143Z"/><path d="M7295.73,1176.46v-150.7h77.62q21.58,0,33,3.7a35.21,35.21,0,0,1,18.4,13.72q7,10,7,24.42,0,12.54-5.35,21.64a41.89,41.89,0,0,1-14.71,14.75q-6,3.6-16.36,6,8.33,2.79,12.13,5.56,2.56,1.85,7.45,7.92a59.48,59.48,0,0,1,6.52,9.37l22.55,43.66h-52.62l-24.89-46q-4.72-8.94-8.43-11.62a19.61,19.61,0,0,0-11.41-3.49h-4.11v61.16Zm46.78-89.64h19.63q3.18,0,12.34-2A12.34,12.34,0,0,0,7382,1080a13.9,13.9,0,0,0,2.93-8.74q0-7.29-4.62-11.2t-17.38-3.91h-20.45Z"/><path d="M7450.75,1126.61l44.31-2.78q1.44,10.8,5.86,16.45,7.2,9.15,20.56,9.15,10,0,15.37-4.68t5.4-10.84q0-5.87-5.14-10.49t-23.85-8.74q-30.65-6.89-43.69-18.3t-13.16-29.09a39.53,39.53,0,0,1,6.73-22q6.73-10.32,20.25-16.24t37.06-5.91q28.89,0,44.05,10.74t18,34.18l-43.89,2.57q-1.76-10.17-7.35-14.8t-15.47-4.63q-8.13,0-12.24,3.45a10.56,10.56,0,0,0-4.11,8.38,8.37,8.37,0,0,0,3.39,6.47q3.3,3,15.63,5.55,30.53,6.59,43.74,13.32t19.22,16.7a42.35,42.35,0,0,1,6,22.31,47.77,47.77,0,0,1-8,26.73,50.22,50.22,0,0,1-22.41,18.55q-14.4,6.33-36.29,6.32-38.44,0-53.25-14.8T7450.75,1126.61Z"/></svg>