<svg id="Layer_1" data-name="Layer 1" xmlns="http://www.w3.org/2000/svg" viewBox="0 0 558 376"><defs><style>.cls-1{fill:#fd5e63;}.cls-2{fill:#fff;}</style></defs><polygon class="cls-1" points="286.64 376 0 208.22 283.03 0 558 208.38 286.64 376"/><path class="cls-2" d="M151.94,205.24c-5.68,0-8.17-2.74-8.17-9V35c0-6.22,2.49-8.95,8.17-8.95h36.55c4.77,0,7.72,2,10.45,7.46l20.43,40.56c1.59,3,2.27,4.23,4.09,4.23h2c1.82,0,2.5-1.24,4.09-4.23L249.8,33.55c2.72-5.47,5.68-7.46,10.44-7.46H297c5.67,0,8.17,2.73,8.17,9V163.38l83.57-56.68c-5.19,5.77-8.17,9-8.17,9L258.9,201.77c-5.9,0-5,.73-5-5.49V108.7l-13.4,27.12c-2.72,5.72-6.13,8-12,8h-9.09c-5.9,0-9.31-2.24-12-8l-13.4-27.12v87.58c0,6.22-2.49,9-8.17,9Z"/><path class="cls-2" d="M291.67,354.1c-5.68,0-8.17-2.74-8.17-9V205.24l-132.29,77.2S162.52,274.37,167,270l132.58-93.3L364.1,175c29.74,0,43.59,11.94,43.59,38.07V225c0,13.93-4.31,22.64-13.39,26.87,19.52,2,28.61,14.18,28.61,38.57v22.89c0,27.87-13.85,40.81-44.05,40.81Zm42.91-110h19.3c5.91,0,8.63-3.24,8.63-10v-7c0-6.72-2.72-9.95-8.63-9.95h-19.3Zm0,67.68H364.1c5.9,0,8.63-3.24,8.63-10v-9.7c0-6.72-2.73-9.7-8.63-9.7H334.58Z"/></svg>